<!-- <?xml version="1.0" encoding="UTF-8"?> -->
<svg fill="currentColor" fill-rule="evenodd" viewBox="0 0 400 400"
    xmlns="http://www.w3.org/2000/svg">
    <path d="m93.814 77.395c0.16 0.037-0.013 0.07-0.723 0.139-0.224 0.021-0.61 0.073-0.858 0.114-0.248 0.042-0.553 0.092-0.677 0.112-0.309 0.051-0.725 0.127-0.983 0.181-0.117 0.025-0.3 0.062-0.406 0.082-0.105 0.021-0.268 0.061-0.361 0.09-0.386 0.122-0.474 0.144-0.565 0.144-0.053 0-0.108 0.02-0.124 0.045-0.015 0.025-0.077 0.045-0.136 0.045-0.06 0-0.176 0.029-0.257 0.064-0.082 0.035-0.24 0.088-0.352 0.119-0.428 0.117-0.522 0.146-0.598 0.184-0.043 0.022-0.109 0.04-0.147 0.04s-0.104 0.018-0.147 0.04c-0.082 0.042-0.252 0.108-0.711 0.276-0.149 0.055-0.332 0.126-0.406 0.158-0.126 0.054-0.225 0.094-0.486 0.198-0.189 0.076-0.416 0.178-0.914 0.412-0.273 0.128-0.507 0.233-0.52 0.233-0.012 0-0.047 0.021-0.077 0.046-0.031 0.025-0.203 0.122-0.384 0.216-1.699 0.88-3.118 1.835-4.73 3.181-1.003 0.839-2.353 2.186-3.121 3.116-0.06 0.073-0.172 0.205-0.249 0.294-0.116 0.134-0.577 0.731-0.998 1.293-0.207 0.277-0.329 0.453-0.402 0.584-0.042 0.075-0.089 0.146-0.104 0.158-0.046 0.037-0.271 0.392-0.645 1.016-0.193 0.323-0.367 0.608-0.386 0.632-0.268 0.348-1.443 2.882-1.737 3.748-0.051 0.149-0.11 0.291-0.132 0.314-0.022 0.024-0.04 0.089-0.04 0.144 0 0.056-0.02 0.114-0.045 0.129-0.025 0.016-0.045 0.074-0.045 0.13 0 0.055-0.018 0.12-0.04 0.144-0.022 0.023-0.072 0.164-0.111 0.313-0.04 0.149-0.114 0.403-0.166 0.565-0.051 0.161-0.115 0.375-0.14 0.474-0.062 0.237-0.173 0.642-0.225 0.816-0.022 0.076-0.041 0.177-0.041 0.223s-0.019 0.146-0.042 0.222c-0.047 0.154-0.109 0.473-0.186 0.952-0.028 0.174-0.072 0.407-0.097 0.519-0.088 0.384-0.192 1.368-0.259 2.439-0.057 0.918-0.057 98.922 0 99.864 0.061 1.01 0.139 1.745 0.25 2.371 0.212 1.189 0.245 1.363 0.292 1.516 0.023 0.076 0.042 0.176 0.042 0.222s0.019 0.147 0.041 0.223c0.051 0.17 0.162 0.573 0.225 0.816 0.026 0.099 0.106 0.374 0.179 0.61 0.072 0.236 0.146 0.494 0.163 0.575 0.017 0.08 0.05 0.158 0.073 0.172s0.042 0.074 0.042 0.133 0.02 0.12 0.045 0.136c0.025 0.015 0.045 0.062 0.045 0.104 0 0.065 0.05 0.203 0.273 0.754 0.02 0.049 0.09 0.232 0.155 0.406 0.066 0.174 0.156 0.397 0.202 0.497 0.132 0.29 0.369 0.801 0.437 0.944 0.034 0.072 0.062 0.156 0.062 0.188 0 0.031 0.015 0.064 0.034 0.072 0.03 0.013 0.151 0.24 0.588 1.099 0.063 0.124 0.128 0.236 0.144 0.248 0.016 0.013 0.064 0.094 0.107 0.181s0.162 0.29 0.264 0.451c0.102 0.162 0.208 0.334 0.236 0.384 0.352 0.624 1.746 2.521 2.261 3.076 0.026 0.027 0.183 0.21 0.35 0.406 0.437 0.512 2.09 2.138 2.566 2.524 0.201 0.163 0.652 0.541 0.675 0.566 0.013 0.014 0.226 0.175 0.474 0.36 0.249 0.184 0.462 0.348 0.475 0.364 0.05 0.064 0.896 0.629 0.943 0.629 0.027 0 0.05 0.021 0.05 0.047 0 0.025 0.036 0.06 0.079 0.076 0.044 0.016 0.242 0.133 0.44 0.26 0.199 0.128 0.392 0.245 0.429 0.262 0.038 0.017 0.149 0.082 0.249 0.144 0.099 0.063 0.211 0.128 0.248 0.145s0.168 0.09 0.29 0.162c0.269 0.158 1.205 0.63 1.765 0.891 0.223 0.104 0.461 0.219 0.529 0.255s0.134 0.065 0.146 0.064c0.039-1e-3 0.175 0.045 0.318 0.107 0.075 0.032 0.186 0.079 0.249 0.104 0.062 0.025 0.163 0.066 0.225 0.091 0.353 0.143 0.518 0.202 0.926 0.332 0.248 0.079 0.563 0.183 0.7 0.232 0.137 0.048 0.319 0.105 0.406 0.126s0.24 0.061 0.339 0.09c0.163 0.046 0.357 0.095 1.084 0.269 0.124 0.03 0.288 0.072 0.364 0.095 0.077 0.023 0.187 0.041 0.245 0.041 0.059 0 0.169 0.019 0.246 0.042 0.511 0.153 1.828 0.326 3.48 0.455 1.039 0.081 17.525 0.057 17.608-0.026 0.064-0.064 0.07-3.142 0.06-33.431l-0.012-33.36 0.158-0.074c0.087-0.041 0.277-0.127 0.422-0.191 1.434-0.639 3.279-2.726 3.532-3.995 0.017-0.087 0.056-0.209 0.086-0.271s0.08-0.235 0.11-0.384c0.031-0.149 0.076-0.346 0.099-0.438 0.118-0.455 0.093-1.933-0.044-2.632-0.407-2.075-1.904-4.001-3.821-4.917-0.199-0.095-0.4-0.193-0.448-0.219-0.127-0.067-0.354-0.136-0.997-0.303-0.672-0.175-2.085-0.219-2.822-0.088-0.36 0.064-0.687 0.136-0.79 0.175-0.05 0.018-0.172 0.059-0.271 0.091-0.265 0.085-0.786 0.322-1.175 0.534-1.068 0.583-2.472 2.038-2.786 2.886-0.03 0.081-0.07 0.147-0.09 0.147s-0.036 0.02-0.036 0.044-0.05 0.151-0.111 0.282-0.154 0.381-0.207 0.555c-0.052 0.174-0.117 0.377-0.143 0.451-0.141 0.404-0.229 1.359-0.197 2.145 0.031 0.777 0.088 1.079 0.348 1.855 0.046 0.138 0.084 0.285 0.084 0.327s0.02 0.076 0.045 0.076 0.045 0.029 0.045 0.064c0 0.191 0.675 1.309 1.079 1.786 0.591 0.699 1.919 1.763 2.202 1.763 0.034 0 0.061 0.02 0.061 0.045s0.022 0.045 0.048 0.045 0.153 0.049 0.282 0.109 0.367 0.153 0.528 0.208l0.294 0.099v28.941 28.941l-5.893-1e-3c-3.414-1e-3 -6.121-0.02-6.435-0.045-1.104-0.09-1.846-0.174-2.348-0.265-0.471-0.086-0.957-0.19-1.175-0.251-0.124-0.035-0.317-0.088-0.429-0.118-0.376-0.102-0.518-0.145-0.677-0.204-0.087-0.032-0.239-0.083-0.339-0.113-0.099-0.029-0.201-0.068-0.225-0.085-0.025-0.017-0.137-0.06-0.249-0.095-0.111-0.035-0.299-0.109-0.417-0.166-0.118-0.056-0.224-0.102-0.236-0.102-0.064 0-1.379-0.636-1.492-0.722-0.039-0.029-0.278-0.166-0.587-0.335-0.049-0.028-0.185-0.116-0.301-0.197-0.117-0.08-0.233-0.146-0.26-0.146s-0.048-0.017-0.048-0.038-0.054-0.062-0.119-0.092c-0.837-0.382-3.243-2.67-4.197-3.992-0.258-0.358-0.968-1.424-0.968-1.453 0-0.019-0.04-0.09-0.09-0.16-0.107-0.15-0.903-1.711-0.903-1.771 0-0.023-0.048-0.146-0.107-0.275s-0.152-0.357-0.207-0.506c-0.056-0.149-0.128-0.342-0.16-0.429-0.033-0.086-0.104-0.31-0.158-0.496-0.054-0.187-0.116-0.374-0.139-0.417s-0.042-0.113-0.042-0.155-0.018-0.139-0.041-0.215c-0.109-0.368-0.182-0.65-0.208-0.794-0.015-0.087-0.048-0.27-0.072-0.406-0.129-0.706-0.206-1.369-0.263-2.258-0.05-0.788-0.05-97.434 1e-3 -98.307 0.064-1.109 0.166-1.927 0.35-2.799 0.067-0.319 0.241-1.007 0.28-1.107 0.019-0.049 0.079-0.242 0.134-0.429 0.119-0.405 0.361-1.044 0.692-1.829 0.102-0.239 0.581-1.187 0.754-1.49 0.057-0.099 0.126-0.221 0.154-0.271 0.044-0.076 0.215-0.347 0.385-0.609 1.093-1.682 2.532-3.205 4.201-4.446 0.36-0.268 0.69-0.498 0.734-0.51 0.043-0.012 0.079-0.04 0.079-0.062s0.027-0.04 0.059-0.04c0.033 0 0.103-0.041 0.156-0.09 0.054-0.05 0.109-0.09 0.123-0.09s0.111-0.055 0.216-0.122c0.484-0.306 1.815-0.971 2.336-1.165 0.112-0.042 0.224-0.091 0.248-0.109 0.025-0.018 0.259-0.1 0.52-0.181 0.26-0.082 0.504-0.164 0.542-0.182 0.072-0.036 0.493-0.161 0.79-0.235 0.099-0.024 0.241-0.062 0.316-0.083 0.453-0.128 1.338-0.281 2.328-0.404 0.271-0.034 19.751-0.048 65.35-0.048 42.101 0 65.005-0.016 65.08-0.044l0.116-0.044v-4.404-4.404l-65.556 5e-3c-36.057 3e-3 -65.496 0.019-65.421 0.036m142.54 4.382v4.423l0.147 0.027c0.081 0.014 5.588 0.02 12.238 0.013l12.09-0.013v31.215c0 28.856-5e-3 31.215-0.073 31.215-0.37 0-1.903 1.034-2.539 1.712-0.485 0.517-0.939 1.185-1.264 1.862-0.103 0.215-0.188 0.423-0.188 0.463 0 0.039-0.018 0.072-0.04 0.072s-0.05 0.056-0.063 0.124c-0.012 0.068-0.083 0.358-0.157 0.644-0.348 1.346-0.238 3.111 0.262 4.187 0.049 0.106 0.089 0.211 0.089 0.234 0 0.083 0.525 1.026 0.641 1.153 0.045 0.048 0.081 0.103 0.081 0.122 0 0.054 0.641 0.805 0.887 1.037 0.614 0.583 1.405 1.104 2.116 1.394 0.122 0.05 0.431 0.179 0.542 0.226 0.05 0.021 0.151 0.052 0.226 0.067 0.074 0.015 0.216 0.049 0.316 0.074 0.982 0.253 2.704 0.272 3.146 0.036 0.042-0.023 0.138-0.041 0.212-0.041 0.075 0 0.149-0.02 0.164-0.045s0.072-0.045 0.127-0.045c0.085 0 0.253-0.059 0.799-0.283 1.453-0.595 2.714-1.804 3.545-3.399 0.078-0.15 0.218-0.506 0.312-0.791 0.23-0.701 0.252-0.78 0.252-0.891 0-0.053 0.03-0.213 0.068-0.356 0.079-0.305 0.093-1.645 0.02-1.934-0.026-0.1-0.065-0.283-0.088-0.407-0.091-0.495-0.126-0.64-0.199-0.835-0.042-0.112-0.11-0.305-0.151-0.429s-0.086-0.236-0.099-0.249c-0.014-0.012-0.053-0.083-0.087-0.158-0.034-0.074-0.078-0.166-0.099-0.203s-0.081-0.149-0.134-0.248c-0.52-0.975-1.706-2.163-2.663-2.669-0.137-0.072-0.255-0.146-0.263-0.165-9e-3 -0.018-0.042-0.034-0.075-0.034-0.051 0-0.314-0.117-0.621-0.275-0.043-0.022-0.118-0.041-0.167-0.041-0.048 0-0.1-0.02-0.116-0.045-0.015-0.025-0.067-0.045-0.115-0.045-0.087 0-0.088-0.346-0.088-31.124v-31.125h12.172c10.769 0 12.176-8e-3 12.214-0.068 0.047-0.075 0.063-8.429 0.016-8.664l-0.028-0.141h-26.683-26.682v4.423m65.026 2e-3c0 2.434 5e-3 4.429 0.012 4.433 6e-3 4e-3 0.895 0.024 1.975 0.043 1.081 0.019 2.107 0.054 2.281 0.078 0.922 0.126 1.93 0.319 1.991 0.381 0.018 0.018 0.1 0.032 0.181 0.032s0.16 0.021 0.176 0.046c0.015 0.024 0.094 0.045 0.174 0.045 0.081 0 0.166 0.016 0.189 0.036 0.024 0.019 0.165 0.072 0.314 0.117s0.306 0.1 0.349 0.122c0.044 0.023 0.119 0.041 0.167 0.041 0.049 0 0.101 0.02 0.116 0.045 0.016 0.025 0.077 0.045 0.136 0.045s0.12 0.02 0.135 0.045c0.016 0.025 0.057 0.045 0.092 0.045s0.181 0.053 0.325 0.118c0.143 0.065 0.301 0.134 0.351 0.153 0.634 0.252 2.144 1.038 2.183 1.136 8e-3 0.021 0.034 0.039 0.057 0.039 0.067 0 1.432 0.923 1.531 1.035 0.012 0.014 0.124 0.106 0.248 0.204 0.902 0.711 1.707 1.525 2.77 2.802 0.085 0.102 0.401 0.53 0.504 0.682 0.355 0.525 0.596 0.899 0.659 1.022 0.042 0.081 0.088 0.158 0.103 0.17 0.089 0.073 0.833 1.575 1.062 2.145 0.12 0.298 0.235 0.583 0.256 0.632 0.021 0.05 0.07 0.192 0.109 0.316s0.088 0.267 0.11 0.316c0.036 0.085 0.106 0.32 0.187 0.633 0.019 0.074 0.066 0.237 0.105 0.361s0.092 0.366 0.119 0.538 0.062 0.335 0.079 0.361c0.029 0.047 0.055 0.195 0.146 0.839 0.042 0.296 0.095 0.796 0.178 1.671 0.029 0.311 0.045 17.217 0.045 49.154 0 31.936-0.016 48.842-0.045 49.153-0.082 0.868-0.136 1.374-0.178 1.671-0.088 0.632-0.126 0.85-0.153 0.895-0.016 0.025-0.058 0.205-0.095 0.399-0.036 0.195-0.099 0.466-0.139 0.602-0.041 0.137-0.083 0.299-0.095 0.361-0.012 0.063-0.039 0.154-0.06 0.204-0.02 0.049-0.048 0.131-0.06 0.18-0.027 0.107-0.2 0.593-0.257 0.723-0.022 0.049-0.07 0.182-0.107 0.293-0.2 0.602-0.809 1.862-1.19 2.462-0.031 0.05-0.076 0.134-0.1 0.188-0.023 0.054-0.114 0.198-0.203 0.321-0.088 0.123-0.16 0.247-0.16 0.275s-0.017 0.051-0.037 0.051-0.082 0.076-0.138 0.169-0.146 0.23-0.201 0.305c-0.055 0.074-0.161 0.217-0.235 0.317-0.796 1.079-1.997 2.303-3.209 3.274-0.048 0.038-0.228 0.169-0.402 0.292s-0.327 0.235-0.339 0.249c-0.056 0.063-1.011 0.653-1.513 0.934-0.211 0.118-1.267 0.64-1.4 0.692-0.049 0.019-0.202 0.087-0.338 0.15-0.137 0.063-0.33 0.14-0.429 0.172-0.1 0.032-0.201 0.07-0.226 0.085s-0.137 0.054-0.248 0.085c-0.112 0.032-0.27 0.087-0.352 0.121-0.081 0.035-0.187 0.064-0.234 0.064-0.048 0-0.098 0.018-0.111 0.04-0.014 0.022-0.091 0.05-0.172 0.062s-0.259 0.056-0.396 0.098c-0.796 0.242-1.885 0.411-3.658 0.566-0.344 0.03-18.778 0.045-54.809 0.046l-54.29 1e-3v4.375c0 3.948 7e-3 4.378 0.072 4.403 0.131 0.05 109.28 0.029 109.86-0.021 1.572-0.135 2.514-0.247 2.958-0.352 0.111-0.026 0.325-0.07 0.474-0.097 0.587-0.108 0.774-0.147 0.926-0.195 0.086-0.027 0.168-0.051 0.18-0.053 0.353-0.061 0.639-0.132 0.658-0.163 0.014-0.022 0.073-0.04 0.133-0.04 0.059 0 0.155-0.019 0.212-0.042 0.057-0.022 0.347-0.115 0.645-0.206s0.583-0.182 0.633-0.201c0.049-0.019 0.171-0.06 0.271-0.09 0.099-0.03 0.241-0.081 0.316-0.114 0.188-0.083 0.334-0.141 0.519-0.206 0.087-0.031 0.239-0.092 0.339-0.136 0.23-0.102 0.516-0.223 0.632-0.269 0.614-0.24 2.114-1.028 3.093-1.625 0.062-0.038 0.181-0.109 0.264-0.159 1.662-0.993 4.308-3.24 5.61-4.764 0.16-0.186 0.301-0.349 0.315-0.361 0.013-0.013 0.167-0.196 0.341-0.407 0.273-0.331 0.476-0.595 1.143-1.49 0.065-0.087 0.259-0.371 0.431-0.632s0.369-0.559 0.439-0.662c0.07-0.104 0.127-0.211 0.127-0.237 0-0.027 0.018-0.05 0.04-0.05s0.052-0.035 0.067-0.079c0.015-0.043 0.075-0.16 0.132-0.259 0.058-0.1 0.163-0.282 0.235-0.407 0.161-0.281 0.967-1.877 1.071-2.122 0.337-0.796 0.487-1.174 0.487-1.226 0-0.034 0.016-0.061 0.034-0.061 0.033 0 0.108-0.188 0.19-0.474 0.021-0.075 0.088-0.278 0.149-0.452 0.101-0.286 0.3-0.915 0.4-1.264 0.022-0.075 0.068-0.228 0.104-0.34 0.035-0.113 0.077-0.285 0.094-0.384s0.057-0.271 0.089-0.382c0.055-0.191 0.109-0.439 0.212-0.971 0.023-0.124 0.064-0.318 0.09-0.429 0.062-0.262 0.177-1.096 0.265-1.919 0.12-1.111 0.129-4.661 0.128-50.892 0-46.129-9e-3 -49.896-0.128-50.982-0.106-0.972-0.212-1.724-0.254-1.792-0.016-0.025-0.046-0.161-0.067-0.302-0.085-0.569-0.205-1.154-0.259-1.261-0.022-0.042-0.064-0.225-0.095-0.405s-0.075-0.338-0.098-0.352c-0.022-0.014-0.041-0.074-0.041-0.134 0-0.059-0.018-0.155-0.04-0.212s-0.116-0.347-0.208-0.645c-0.093-0.298-0.186-0.583-0.206-0.632-0.021-0.05-0.068-0.182-0.104-0.294s-0.09-0.264-0.121-0.339c-0.03-0.074-0.07-0.176-0.09-0.225-0.36-0.933-0.478-1.201-0.951-2.168-0.474-0.971-1.341-2.491-1.575-2.764-0.026-0.03-0.047-0.066-0.047-0.081 0-0.026-0.818-1.192-0.934-1.332-0.031-0.037-0.194-0.242-0.363-0.456-1.132-1.435-2.486-2.83-3.805-3.921-0.187-0.155-0.38-0.315-0.429-0.357-0.05-0.042-0.304-0.235-0.565-0.429s-0.504-0.377-0.542-0.407c-0.037-0.029-0.164-0.114-0.282-0.188s-0.214-0.15-0.214-0.169c0-0.018-0.031-0.034-0.068-0.034s-0.068-0.017-0.068-0.037c0-0.021-0.056-0.066-0.124-0.1-0.068-0.035-0.205-0.116-0.305-0.181-0.347-0.228-0.544-0.35-0.858-0.533-0.174-0.101-0.336-0.2-0.361-0.22-0.186-0.145-2.494-1.277-2.604-1.277-0.036 0-0.084-0.017-0.108-0.038-0.023-0.021-0.114-0.063-0.201-0.095-0.087-0.031-0.219-0.083-0.293-0.115-0.075-0.032-0.197-0.083-0.271-0.114-0.075-0.03-0.171-0.073-0.214-0.095s-0.115-0.04-0.16-0.04-0.102-0.017-0.125-0.039c-0.044-0.041-0.825-0.309-1.195-0.41-0.111-0.031-0.269-0.084-0.351-0.119s-0.197-0.064-0.257-0.064-0.121-0.02-0.137-0.045c-0.015-0.025-0.071-0.045-0.123-0.045-0.053 0-0.158-0.019-0.235-0.042-0.347-0.106-1.027-0.264-1.583-0.367-0.549-0.102-1.644-0.272-1.897-0.295-0.584-0.052-0.995-0.128-0.858-0.159 0.075-0.016-0.886-0.032-2.134-0.035l-2.269-5e-3v4.425m-87.74 17.209c-0.523 0.062-1.121 0.197-1.194 0.27-0.024 0.023-0.088 0.042-0.144 0.042s-0.114 0.02-0.129 0.045c-0.016 0.025-0.063 0.045-0.107 0.045-0.118 0-0.885 0.387-1.293 0.652-1.291 0.839-2.045 1.769-2.825 3.48-0.023 0.05-0.074 0.212-0.113 0.361-0.273 1.024-0.31 1.271-0.31 2.078s0.043 1.088 0.311 2.077c0.395 1.455 1.782 3.216 3.135 3.981 0.522 0.294 1.275 0.627 1.485 0.656l0.102 0.014-1e-3 33.418c0 25.974 0.011 33.431 0.054 33.473 0.041 0.041 0.601 0.054 2.258 0.054h2.203v-33.552-33.553l0.124-0.051c1.111-0.457 2.121-1.215 2.846-2.137 0.332-0.422 0.499-0.677 0.785-1.197 0.061-0.111 0.309-0.677 0.309-0.705 0-0.015 0.028-0.09 0.062-0.168 0.073-0.168 0.143-0.417 0.205-0.73 0.025-0.124 0.072-0.348 0.104-0.497 0.078-0.362 0.078-1.807-1e-3 -2.167-0.032-0.149-0.081-0.383-0.107-0.519-0.13-0.669-0.729-2-1.109-2.461-0.02-0.025-0.151-0.188-0.29-0.362-0.271-0.339-0.807-0.87-1.096-1.086-0.099-0.073-0.228-0.179-0.289-0.235-0.061-0.055-0.137-0.101-0.168-0.101-0.032 0-0.064-0.017-0.073-0.038-0.023-0.059-0.477-0.308-1.031-0.566-1.02-0.475-2.428-0.673-3.703-0.521m2.003 3.405c0.681 0.222 1.02 0.426 1.501 0.903 1.984 1.966 1.209 5.448-1.381 6.202-0.112 0.032-0.266 0.078-0.342 0.101-0.437 0.133-1.67 0.077-2.074-0.093-0.873-0.369-1.425-0.778-1.838-1.365-1.158-1.644-0.814-3.986 0.754-5.129 0.124-0.09 0.236-0.175 0.248-0.189 0.072-0.079 0.832-0.404 1.152-0.492 0.481-0.133 1.479-0.102 1.98 0.062m-35.261 43.146c-0.486 0.038-1.09 0.168-1.49 0.319-2.111 0.801-3.591 2.266-4.355 4.311-0.225 0.603-0.305 0.988-0.374 1.804-0.073 0.873 0.068 2.222 0.276 2.635 0.022 0.042 0.064 0.158 0.094 0.258 0.03 0.099 0.081 0.241 0.114 0.316 0.199 0.452 0.364 0.77 0.5 0.969 0.085 0.124 0.155 0.236 0.155 0.249 0 0.107 0.829 1.047 1.257 1.425 0.603 0.531 1.621 1.142 2.175 1.303 0.112 0.033 0.249 0.077 0.305 0.099l0.102 0.04v28.946 28.947h-27.727-27.727l0.012 4.391 0.011 4.392h29.962 29.962l0.022-66.844 0.237-0.1c0.374-0.158 0.733-0.337 0.749-0.374 8e-3 -0.019 0.035-0.034 0.06-0.034 0.024 0 0.111-0.051 0.192-0.113s0.17-0.113 0.196-0.113c0.027 0 0.056-0.015 0.064-0.034 8e-3 -0.018 0.161-0.143 0.339-0.277 0.563-0.422 1.382-1.35 1.715-1.941 0.327-0.581 0.574-1.146 0.693-1.586 0.031-0.112 0.071-0.244 0.091-0.294 0.266-0.677 0.243-2.533-0.046-3.567-0.027-0.099-0.066-0.242-0.086-0.316-0.057-0.213-0.475-1.115-0.669-1.445-0.4-0.677-1.312-1.657-1.999-2.146-0.505-0.359-1.711-0.947-1.943-0.947-0.046 0-0.095-0.018-0.109-0.041-0.014-0.022-0.101-0.051-0.195-0.063-0.093-0.013-0.312-0.054-0.486-0.091-0.395-0.084-1.479-0.125-2.077-0.078m-70.009 3.324c0.812 0.237 1.137 0.389 1.606 0.749 0.448 0.346 0.965 1.054 1.13 1.551 0.207 0.622 0.215 0.673 0.215 1.354 0 0.449-0.021 0.746-0.062 0.881-0.127 0.413-0.244 0.746-0.276 0.79-0.018 0.025-0.087 0.143-0.153 0.262-0.137 0.25-0.153 0.271-0.457 0.607-0.694 0.766-2.067 1.335-2.93 1.215-0.115-0.016-0.305-0.041-0.423-0.056-0.497-0.061-1.265-0.403-1.728-0.767-2.046-1.611-1.791-4.912 0.477-6.172 0.281-0.157 0.467-0.227 1.082-0.412 0.313-0.094 1.2-0.095 1.519-2e-3m71.525-2e-3c0.135 0.037 0.327 0.09 0.426 0.118 1.089 0.298 2.244 1.528 2.453 2.613 0.214 1.103 0.141 1.756-0.29 2.632-0.281 0.569-1.111 1.471-1.359 1.478-0.02 1e-3 -0.087 0.041-0.149 0.089-0.062 0.049-0.147 0.089-0.188 0.09-0.042 0-0.082 0.017-0.091 0.036-0.02 0.049-0.718 0.262-1.056 0.322-1.58 0.283-3.607-0.945-3.974-2.407-0.016-0.065-0.048-0.13-0.07-0.144-0.022-0.013-0.04-0.083-0.04-0.154 0-0.072-0.018-0.142-0.039-0.155-0.063-0.038-0.101-0.963-0.056-1.336 0.148-1.209 0.892-2.287 1.946-2.82 0.137-0.069 0.284-0.143 0.327-0.165s0.118-0.04 0.167-0.04c0.048 0 0.101-0.02 0.116-0.045s0.072-0.046 0.127-0.046c0.054-1e-3 0.18-0.03 0.279-0.066 0.251-0.09 1.149-0.09 1.471 0m82.092 2.659c0.187 0.034 0.4 0.084 0.475 0.113 1.378 0.522 2.191 1.404 2.498 2.713 0.125 0.532 0.081 1.612-0.081 2.01-0.02 0.05-0.079 0.196-0.129 0.326-0.421 1.077-1.387 1.86-2.684 2.173-0.272 0.066-1.205 0.068-1.451 3e-3 -0.102-0.026-0.267-0.07-0.366-0.096-0.1-0.026-0.267-0.085-0.372-0.132-0.106-0.046-0.203-0.084-0.217-0.084-0.095 0-0.771-0.498-0.995-0.732-0.563-0.591-0.835-1.107-0.994-1.887-0.148-0.727-0.145-0.836 0.053-1.705 0.174-0.76 0.794-1.664 1.422-2.071 0.11-0.071 0.21-0.14 0.222-0.153 0.02-0.021 0.325-0.171 0.565-0.277 0.529-0.235 1.4-0.32 2.054-0.201m-146.61 8.239c-0.865 0.879-1.06 1.135-0.864 1.135 0.028 0 5.61 5.559 12.405 12.352l12.354 12.353-0.054 0.202c-0.158 0.587 0.079 1.752 0.432 2.134 0.032 0.034 0.085 0.116 0.12 0.182 0.172 0.333 0.904 0.885 1.448 1.092 0.532 0.202 1.752 0.197 1.985-9e-3 0.023-0.021 0.089-0.038 0.147-0.038 0.057 0 0.103-0.02 0.103-0.045s0.023-0.045 0.05-0.045c0.094 0 0.565-0.318 0.792-0.535 0.536-0.511 0.836-1.083 0.967-1.842 0.055-0.321 0.049-0.464-0.044-0.987l-0.048-0.271 12.328-12.328c6.78-6.78 12.327-12.349 12.327-12.376 0-0.096-1.867-1.92-1.952-1.907-0.045 8e-3 -5.618 5.551-12.386 12.318-11.335 11.336-12.311 12.301-12.394 12.249-0.282-0.176-1.261-0.163-1.842 0.026l-0.147 0.048-12.282-12.283c-6.755-6.756-12.282-12.302-12.282-12.325 0-0.212-0.29 0.013-1.163 0.9m27.26 24.984c1.824 0.583 1.476 3.166-0.425 3.166-1.859 0-2.23-2.584-0.452-3.151 0.231-0.073 0.67-0.081 0.877-0.015m-66.264 56.916c-0.025 9e-3 -0.218 0.038-0.429 0.064-0.727 0.089-1.37 0.234-1.636 0.369-0.044 0.022-0.107 0.039-0.14 0.039-0.057 0-0.265 0.086-0.448 0.184-0.043 0.023-0.104 0.043-0.135 0.044s-0.209 0.08-0.396 0.177c-0.186 0.096-0.444 0.23-0.574 0.296-0.129 0.067-0.258 0.149-0.287 0.184s-0.076 0.064-0.104 0.064c-0.181 0-1.394 1.046-1.942 1.675-0.688 0.79-1.65 2.339-1.653 2.662 0 0.039-0.017 0.089-0.038 0.113-0.02 0.024-0.083 0.195-0.14 0.381-0.057 0.187-0.123 0.389-0.146 0.449-0.318 0.811-0.414 3.476-0.176 4.88 0.133 0.788 0.423 1.645 0.832 2.461 0.195 0.388 0.333 0.618 0.706 1.174 0.518 0.772 1.407 1.646 2.333 2.295 0.336 0.235 1.392 0.801 1.731 0.927 0.635 0.237 0.939 0.33 1.355 0.415 0.136 0.028 0.37 0.079 0.519 0.112 0.149 0.034 0.474 0.078 0.723 0.098 0.59 0.048 241.81 0.048 242.4 0 0.248-0.02 0.574-0.064 0.723-0.098 0.149-0.033 0.382-0.085 0.519-0.114 0.272-0.058 0.355-0.082 0.858-0.245 0.597-0.193 1.264-0.504 1.773-0.826 0.168-0.106 0.323-0.193 0.346-0.193 0.022 0 0.048-0.016 0.056-0.036s0.137-0.123 0.286-0.229c1.125-0.799 2.184-2.069 2.867-3.438 0.08-0.16 0.099-0.205 0.264-0.613 0.162-0.399 0.354-1.031 0.411-1.353 0.021-0.123 0.061-0.336 0.088-0.472 0.126-0.648 0.149-1.051 0.125-2.123-0.027-1.169-0.051-1.421-0.206-2.145-0.102-0.472-0.169-0.714-0.236-0.846-0.021-0.043-0.039-0.108-0.039-0.145s-0.053-0.185-0.119-0.328c-0.065-0.144-0.149-0.332-0.186-0.419-0.718-1.664-2.197-3.334-3.714-4.195-0.302-0.171-1.062-0.547-1.107-0.547-0.028 0-0.156-0.051-0.284-0.113-0.129-0.062-0.274-0.113-0.322-0.113-0.049 0-0.099-0.018-0.113-0.04-0.013-0.022-0.081-0.05-0.149-0.062-0.069-0.013-0.267-0.063-0.441-0.112-0.32-0.09-0.66-0.152-1.3-0.236-0.332-0.044-242.34-0.066-242.46-0.022m36.306 34.972c-0.124 0.021-0.346 0.039-0.494 0.041-0.268 4e-3 -0.515 0.04-1.154 0.168-0.187 0.037-0.441 0.087-0.565 0.112-0.124 0.024-0.307 0.065-0.406 0.091s-0.262 0.068-0.361 0.093c-0.1 0.025-0.248 0.074-0.329 0.109-0.082 0.035-0.187 0.064-0.235 0.064-0.047 0-0.098 0.02-0.114 0.045-0.015 0.025-0.076 0.045-0.135 0.045s-0.12 0.02-0.136 0.045c-0.015 0.025-0.072 0.046-0.126 0.047-0.055 1e-3 -0.139 0.031-0.187 0.067-0.048 0.037-0.115 0.067-0.147 0.067-0.061 0-0.24 0.075-0.818 0.343-0.181 0.085-0.349 0.153-0.372 0.153-0.024 0-0.043 0.021-0.043 0.046 0 0.024-0.03 0.045-0.066 0.045-0.062 0-0.438 0.19-0.55 0.278-0.028 0.022-0.14 0.086-0.248 0.142-0.408 0.21-1.312 0.824-1.868 1.267-0.478 0.382-1.811 1.689-2.033 1.993-0.072 0.099-0.183 0.244-0.246 0.321s-0.149 0.184-0.192 0.237c-0.068 0.082-0.2 0.274-0.374 0.541-0.185 0.284-0.51 0.822-0.563 0.933-0.036 0.075-0.088 0.166-0.116 0.203-0.028 0.038-0.079 0.139-0.112 0.226-0.034 0.087-0.075 0.168-0.091 0.181-0.017 0.012-0.086 0.163-0.154 0.335-0.069 0.172-0.141 0.345-0.16 0.384-0.062 0.124-0.126 0.288-0.249 0.635-0.065 0.187-0.138 0.386-0.161 0.443s-0.042 0.149-0.042 0.205-0.019 0.121-0.042 0.145-0.074 0.204-0.115 0.4c-0.04 0.197-0.083 0.374-0.096 0.395-0.029 0.047-0.108 0.47-0.158 0.851-0.037 0.276-0.058 0.454-0.173 1.468-0.06 0.522-0.06 1.735 0 2.257 0.025 0.224 0.066 0.6 0.091 0.836 0.07 0.679 0.196 1.502 0.241 1.575 0.015 0.023 0.058 0.212 0.097 0.419s0.09 0.396 0.113 0.419c0.023 0.024 0.042 0.09 0.042 0.148 0 0.057 0.018 0.14 0.039 0.183 0.022 0.043 0.065 0.159 0.096 0.259 0.031 0.099 0.082 0.241 0.113 0.316 0.032 0.074 0.082 0.206 0.113 0.293s0.094 0.245 0.141 0.35 0.085 0.205 0.085 0.221c0 0.171 1.207 2.292 1.397 2.455 0.014 0.012 0.116 0.144 0.225 0.293 0.671 0.911 1.736 1.969 2.759 2.738 0.796 0.598 2.309 1.452 2.957 1.669 0.099 0.033 0.201 0.073 0.226 0.088s0.136 0.054 0.248 0.086 0.264 0.085 0.339 0.117c0.123 0.053 0.298 0.106 0.677 0.204 0.075 0.019 0.237 0.065 0.361 0.102 0.125 0.037 0.338 0.089 0.474 0.115 0.137 0.027 0.31 0.061 0.384 0.076 0.217 0.044 0.64 0.104 1.174 0.166 0.668 0.077 3.488 0.077 4.155 0 0.921-0.107 1.896-0.278 2.02-0.355 0.028-0.017 0.123-0.046 0.212-0.065 0.088-0.019 0.237-0.057 0.33-0.083 0.094-0.027 0.236-0.067 0.317-0.09 0.154-0.044 0.617-0.206 0.79-0.278 0.056-0.023 0.147-0.059 0.203-0.08s0.213-0.092 0.35-0.159c0.137-0.066 0.274-0.12 0.305-0.119 0.031 0 0.056-0.015 0.056-0.034 1e-3 -0.018 0.088-0.07 0.196-0.114 0.107-0.044 0.407-0.208 0.666-0.364s0.52-0.313 0.58-0.349c0.157-0.092 1.015-0.684 1.042-0.718 0.012-0.015 0.155-0.128 0.316-0.251s0.334-0.257 0.384-0.298c0.049-0.042 0.213-0.176 0.363-0.3 0.151-0.123 0.512-0.445 0.804-0.716 0.292-0.27 0.6-0.542 0.685-0.604 0.226-0.166 0.203-0.261-0.148-0.617-0.585-0.594-3.058-3.196-3.162-3.328-0.091-0.115-0.127-0.096-0.52 0.28-0.204 0.194-0.482 0.453-0.619 0.575-0.136 0.123-0.258 0.233-0.271 0.246-0.225 0.232-1.481 1.149-1.927 1.407-0.382 0.221-1.122 0.579-1.198 0.579-0.044 0-0.081 0.016-0.081 0.036 0 0.019-0.096 0.061-0.214 0.092-0.118 0.032-0.276 0.085-0.35 0.118-0.075 0.033-0.227 0.084-0.339 0.113-0.112 0.03-0.266 0.073-0.342 0.096s-0.188 0.042-0.248 0.042c-0.061 1e-3 -0.207 0.03-0.325 0.066-0.538 0.163-3.175 0.178-3.697 0.02-0.084-0.025-0.243-0.064-0.355-0.086-0.508-0.101-1.192-0.304-1.524-0.452-0.056-0.024-0.148-0.063-0.203-0.085-0.324-0.129-1.054-0.517-1.412-0.748-1.428-0.926-2.477-2.186-3.158-3.795-0.042-0.1-0.095-0.221-0.117-0.271s-0.093-0.263-0.158-0.474-0.134-0.435-0.155-0.497c-0.02-0.062-0.06-0.255-0.09-0.429-0.029-0.174-0.071-0.418-0.093-0.542-0.158-0.891-0.158-2.643-1e-3 -3.274 0.022-0.087 0.064-0.3 0.093-0.474 0.29-1.708 1.619-3.851 3.092-4.99 0.1-0.076 0.212-0.164 0.25-0.194 0.172-0.136 0.393-0.287 0.507-0.345 0.068-0.035 0.124-0.08 0.124-0.101 0-0.02 0.021-0.037 0.047-0.037s0.159-0.071 0.295-0.158 0.259-0.158 0.273-0.158c0.015 0 0.152-0.059 0.304-0.13 1.333-0.626 2.357-0.841 4.003-0.839 1.04 0 2.088 0.128 2.687 0.326 0.074 0.025 0.227 0.07 0.339 0.101 0.193 0.053 0.25 0.073 0.564 0.205 0.284 0.118 0.409 0.169 0.497 0.201 0.183 0.067 0.994 0.476 1.008 0.508 9e-3 0.019 0.038 0.034 0.066 0.034 0.214 0 1.843 1.245 2.623 2.004 0.543 0.529 0.502 0.529 1.024 0.015 0.235-0.23 0.843-0.814 1.352-1.298 0.509-0.483 1.1-1.046 1.313-1.251s0.408-0.373 0.435-0.373c0.067 0 0.107-0.18 0.059-0.267-0.277-0.502-3.381-3.12-3.699-3.12-0.023 0-0.049-0.017-0.057-0.039-0.025-0.065-1.621-0.897-2.013-1.05-0.056-0.022-0.148-0.058-0.203-0.08-0.551-0.215-0.714-0.276-0.87-0.324-0.099-0.03-0.221-0.07-0.271-0.09-0.325-0.127-0.919-0.287-1.422-0.385-0.186-0.036-0.432-0.087-0.547-0.112-0.871-0.196-3.251-0.332-3.901-0.223m94.084 0c-0.111 0.021-0.318 0.04-0.459 0.042s-0.354 0.023-0.474 0.047c-0.486 0.097-0.726 0.144-0.941 0.184-0.265 0.049-0.517 0.108-0.767 0.179-0.1 0.028-0.252 0.066-0.339 0.085s-0.199 0.057-0.248 0.083c-0.05 0.027-0.182 0.075-0.294 0.106-0.112 0.032-0.222 0.074-0.246 0.095-0.023 0.02-0.073 0.037-0.11 0.037s-0.149 0.039-0.25 0.086-0.265 0.12-0.365 0.162c-1.944 0.822-3.847 2.217-5.266 3.862-0.161 0.186-0.322 0.382-0.358 0.435-0.036 0.054-0.16 0.219-0.275 0.368-0.116 0.148-0.236 0.316-0.266 0.374-0.031 0.057-0.075 0.125-0.098 0.152-0.217 0.249-0.876 1.46-1.293 2.373-0.272 0.596-0.518 1.349-0.679 2.081-0.02 0.089-0.051 0.186-0.07 0.216-0.018 0.03-0.054 0.181-0.079 0.335-0.025 0.155-0.064 0.393-0.086 0.529-0.134 0.82-0.154 1.145-0.154 2.484 0 0.84 0.023 1.598 0.055 1.851 0.067 0.525 0.205 1.307 0.28 1.581 0.03 0.112 0.077 0.284 0.103 0.384 0.087 0.329 0.137 0.495 0.198 0.655 0.033 0.086 0.082 0.247 0.11 0.356 0.028 0.108 0.069 0.235 0.092 0.282l0.087 0.174c0.025 0.049 0.045 0.109 0.045 0.132 0 0.07 0.619 1.4 0.674 1.449 0.015 0.012 0.075 0.114 0.134 0.226 0.06 0.111 0.136 0.235 0.17 0.274 0.033 0.039 0.061 0.085 0.061 0.101 0 0.084 0.759 1.168 1.141 1.629 0.08 0.097 0.206 0.249 0.281 0.339 0.274 0.331 1.277 1.332 1.649 1.646 0.211 0.177 0.394 0.334 0.406 0.348 0.111 0.122 0.98 0.718 1.671 1.146 0.153 0.095 1.215 0.62 1.445 0.714 0.062 0.026 0.153 0.063 0.203 0.083 0.05 0.021 0.187 0.068 0.304 0.106 0.118 0.038 0.25 0.088 0.294 0.111s0.171 0.067 0.283 0.097c0.267 0.074 0.478 0.135 0.699 0.204 0.249 0.078 0.919 0.212 1.445 0.288 1.369 0.199 3.779 0.179 5.013-0.042 0.63-0.113 1.054-0.206 1.199-0.263 0.061-0.024 0.202-0.069 0.314-0.1 0.44-0.121 0.522-0.146 0.599-0.185 0.043-0.022 0.175-0.072 0.293-0.11s0.255-0.086 0.304-0.107c2.396-1.012 4.617-2.779 6.104-4.857 0.143-0.199 0.272-0.371 0.287-0.384 0.03-0.024 0.521-0.825 0.663-1.083 0.229-0.415 0.54-1.058 0.694-1.434 0.023-0.056 0.062-0.148 0.086-0.203 0.085-0.195 0.268-0.736 0.341-1.005 0.04-0.149 0.103-0.373 0.14-0.497 0.121-0.405 0.178-0.698 0.367-1.874 0.099-0.617 0.108-3.207 0.014-3.771-0.033-0.198-0.076-0.483-0.096-0.632-0.019-0.149-0.048-0.332-0.063-0.406-0.015-0.075-0.049-0.247-0.076-0.384s-0.076-0.34-0.108-0.452c-0.033-0.111-0.085-0.294-0.114-0.406-0.069-0.255-0.348-1.121-0.401-1.242-0.021-0.049-0.084-0.192-0.138-0.316-0.055-0.124-0.131-0.297-0.168-0.384-0.116-0.265-0.393-0.834-0.418-0.858-0.013-0.012-0.073-0.114-0.132-0.225-0.06-0.112-0.136-0.236-0.17-0.275-0.033-0.039-0.061-0.087-0.061-0.106 0-0.068-0.695-1.044-1.119-1.573-0.442-0.551-1.342-1.484-1.884-1.953-0.173-0.149-0.353-0.306-0.402-0.349-0.153-0.137-1.29-0.939-1.406-0.992-0.061-0.028-0.111-0.067-0.111-0.088s-0.021-0.038-0.047-0.038-0.153-0.067-0.282-0.149c-0.219-0.139-1.176-0.62-1.432-0.72-0.062-0.024-0.174-0.071-0.248-0.104-0.161-0.072-0.883-0.324-1.107-0.387-0.087-0.025-0.229-0.066-0.316-0.091-0.255-0.073-0.506-0.13-0.7-0.157-0.099-0.014-0.231-0.044-0.293-0.066-0.473-0.173-3.255-0.334-3.839-0.223m55.905 0c-0.112 0.021-0.314 0.04-0.449 0.042-0.73 0.01-3.1 0.593-3.646 0.897-0.055 0.03-0.12 0.055-0.146 0.055-0.025 0-0.154 0.048-0.285 0.108-0.131 0.059-0.334 0.15-0.45 0.203-0.117 0.052-0.224 0.115-0.24 0.14-0.015 0.025-0.066 0.045-0.112 0.045s-0.09 0.016-0.099 0.034c-8e-3 0.019-0.167 0.113-0.353 0.21-1.439 0.745-3.366 2.374-4.335 3.664-0.187 0.247-0.351 0.46-0.366 0.473-0.024 0.019-0.201 0.279-0.334 0.491-0.025 0.039-0.106 0.163-0.181 0.276-0.074 0.112-0.164 0.254-0.199 0.316-0.59 1.045-0.879 1.677-1.189 2.597-0.051 0.149-0.108 0.312-0.127 0.361-0.092 0.236-0.235 0.755-0.316 1.152-0.028 0.136-0.069 0.322-0.092 0.411-0.023 0.09-0.041 0.233-0.041 0.317s-0.022 0.224-0.049 0.311c-0.188 0.616-0.201 4.085-0.016 4.384 0.017 0.028 0.049 0.186 0.071 0.351 0.021 0.164 0.06 0.411 0.086 0.548 0.026 0.136 0.059 0.324 0.073 0.418 0.014 0.093 0.043 0.181 0.065 0.194 0.022 0.014 0.041 0.07 0.041 0.124 1e-3 0.114 0.146 0.6 0.194 0.647 0.017 0.017 0.031 0.069 0.031 0.115s0.018 0.119 0.04 0.162c0.021 0.043 0.063 0.149 0.093 0.236 0.151 0.435 0.297 0.792 0.329 0.806 0.019 8e-3 0.035 0.042 0.035 0.076 0 0.07 0.6 1.248 0.728 1.428 0.047 0.066 0.085 0.133 0.085 0.148 0 0.048 0.51 0.796 0.919 1.349 0.678 0.914 1.895 2.123 2.93 2.911 0.339 0.258 1.185 0.824 1.232 0.824 0.017 0 0.084 0.037 0.15 0.083 0.19 0.131 0.935 0.499 1.384 0.683 0.05 0.02 0.162 0.067 0.249 0.104s0.239 0.092 0.338 0.123c0.1 0.031 0.2 0.074 0.224 0.096s0.088 0.039 0.144 0.039 0.114 0.021 0.129 0.046c0.016 0.024 0.077 0.045 0.136 0.045 0.06 0 0.155 0.017 0.212 0.039 0.509 0.193 1.301 0.356 2.294 0.47 0.634 0.073 3.222 0.071 3.816-4e-3 0.798-0.1 1.676-0.265 1.921-0.362 0.061-0.024 0.202-0.069 0.314-0.099 0.112-0.031 0.315-0.095 0.451-0.143 0.137-0.047 0.34-0.117 0.452-0.154 0.236-0.079 0.258-0.088 0.769-0.328 0.212-0.1 0.435-0.203 0.497-0.23 0.061-0.027 0.172-0.085 0.247-0.13 0.074-0.045 0.247-0.144 0.384-0.219 0.442-0.245 0.541-0.307 0.541-0.342 0-0.018 0.023-0.034 0.051-0.034 0.064 0 0.529-0.326 1.055-0.741 1.981-1.563 3.636-3.715 4.465-5.806 0.094-0.236 0.189-0.465 0.213-0.508 0.023-0.043 0.042-0.115 0.042-0.16s0.016-0.101 0.037-0.125c0.02-0.023 0.074-0.165 0.119-0.314s0.099-0.317 0.121-0.374c0.021-0.057 0.039-0.153 0.039-0.212 0-0.06 0.017-0.119 0.039-0.133 0.022-0.013 0.052-0.111 0.068-0.217 0.028-0.19 0.046-0.291 0.186-1.005 0.243-1.248 0.242-3.742-2e-3 -5.035-0.04-0.212-0.091-0.486-0.113-0.61-0.102-0.561-0.338-1.425-0.455-1.659-0.022-0.043-0.039-0.109-0.039-0.147s-0.019-0.105-0.042-0.148c-0.024-0.043-0.12-0.271-0.213-0.507-0.99-2.486-3.044-4.954-5.48-6.586-0.311-0.208-0.605-0.396-0.655-0.418-0.096-0.043-0.256-0.139-0.293-0.176-0.026-0.025-0.851-0.432-1.062-0.523-0.434-0.187-0.557-0.238-0.7-0.289-0.087-0.03-0.198-0.07-0.248-0.089-0.34-0.127-0.62-0.213-0.835-0.257-0.062-0.013-0.154-0.04-0.204-0.06-0.049-0.02-0.212-0.06-0.361-0.089s-0.364-0.073-0.479-0.098c-0.896-0.196-3.249-0.331-3.833-0.221m36.077-0.027c-0.014 0.014-0.298 0.046-0.632 0.07-0.334 0.025-0.79 0.078-1.013 0.117-0.224 0.04-0.508 0.09-0.632 0.111-0.245 0.042-0.584 0.116-0.836 0.181-0.087 0.022-0.239 0.061-0.338 0.085-0.25 0.061-1 0.318-1.223 0.419-0.101 0.045-0.199 0.083-0.219 0.083-0.093 0-1.317 0.598-1.638 0.8-0.129 0.082-0.248 0.148-0.263 0.148s-0.156 0.092-0.313 0.203c-0.156 0.112-0.298 0.204-0.314 0.204s-0.193 0.127-0.393 0.282c-0.201 0.155-0.429 0.328-0.507 0.384-0.43 0.307-1.81 1.699-2.248 2.269-0.106 0.136-0.205 0.258-0.22 0.271-0.309 0.244-1.897 3.011-1.897 3.306 0 0.036-0.014 0.079-0.031 0.096-0.036 0.036-0.136 0.3-0.199 0.526-0.025 0.087-0.072 0.23-0.106 0.317-0.059 0.152-0.127 0.39-0.206 0.722-0.021 0.087-0.069 0.28-0.107 0.429-0.115 0.45-0.174 0.867-0.279 1.964-0.126 1.315 1e-3 3.312 0.279 4.403 0.038 0.149 0.086 0.342 0.107 0.429 0.059 0.248 0.143 0.542 0.233 0.823 0.046 0.142 0.083 0.281 0.083 0.309 0 0.05 0.101 0.301 0.185 0.459 0.022 0.043 0.041 0.101 0.041 0.127 0 0.027 0.052 0.164 0.117 0.306 0.064 0.141 0.132 0.297 0.152 0.347 0.091 0.225 0.494 1.024 0.668 1.322 0.106 0.181 0.192 0.348 0.192 0.373 0 0.024 0.02 0.043 0.045 0.043s0.045 0.021 0.045 0.046c0 0.053 0.488 0.776 0.853 1.264 0.466 0.621 1.424 1.636 1.947 2.06 0.087 0.071 0.168 0.14 0.181 0.153 0.422 0.456 3.212 2.122 3.553 2.122 0.033 0 0.146 0.039 0.252 0.087 0.198 0.09 0.988 0.355 1.342 0.451 0.112 0.031 0.295 0.082 0.407 0.115 0.321 0.094 1.011 0.224 1.558 0.293 1.076 0.135 1.319 0.146 2.709 0.123 0.795-0.013 1.618-0.044 1.829-0.069 0.746-0.088 1.565-0.24 1.919-0.358 0.075-0.024 0.227-0.07 0.339-0.101 0.398-0.112 1.162-0.378 1.204-0.42 0.016-0.017 0.067-0.031 0.113-0.031s0.083-0.02 0.083-0.045 0.027-0.045 0.061-0.045c0.033 0 0.156-0.051 0.273-0.113s0.24-0.113 0.274-0.113 0.068-0.015 0.077-0.034c8e-3 -0.018 0.086-0.068 0.173-0.111 0.641-0.314 1.759-1.071 2.286-1.548 0.559-0.506 1.449-1.444 1.733-1.826 0.062-0.084 0.169-0.223 0.237-0.31 0.068-0.086 0.124-0.169 0.124-0.185 0-0.015 0.051-0.086 0.113-0.159 0.062-0.072 0.113-0.144 0.113-0.16 0-0.017 0.035-0.07 0.079-0.12 0.075-0.086 0.151-0.204 0.256-0.402 0.027-0.05 0.094-0.155 0.15-0.233s0.102-0.162 0.102-0.187 0.016-0.053 0.035-0.061c0.033-0.013 0.65-1.242 0.735-1.46 0.019-0.05 0.077-0.183 0.129-0.296 0.052-0.114 0.094-0.236 0.094-0.273 0-0.036 0.027-0.106 0.059-0.155 0.055-0.081 0.097-0.205 0.224-0.653 0.025-0.087 0.065-0.209 0.091-0.271 0.101-0.251 0.275-1.108 0.345-1.705 0.024-0.204 0.058-0.396 0.077-0.426 0.018-0.029 0.034-0.66 0.036-1.4l4e-3 -1.346-6.932 0.011-6.932 0.012v2.528 2.529h3.895c2.142 0 3.895 4e-3 3.895 8e-3 0 0.036-0.301 0.582-0.327 0.594-0.019 8e-3 -0.034 0.037-0.034 0.064 0 0.14-0.728 1.119-1.183 1.593-0.5 0.52-1.279 1.107-1.737 1.309-0.095 0.042-0.255 0.113-0.354 0.157-0.388 0.171-0.6 0.247-0.994 0.352-0.099 0.027-0.292 0.08-0.429 0.118-0.296 0.082-1.812 0.253-2.245 0.253-0.42-1e-3 -2.192-0.205-2.307-0.266-0.051-0.028-0.154-0.05-0.229-0.05-0.074 0-0.148-0.02-0.163-0.045-0.016-0.025-0.073-0.045-0.128-0.045-0.054 0-0.211-0.042-0.347-0.093s-0.339-0.123-0.451-0.159c-0.112-0.037-0.238-0.087-0.282-0.111-0.043-0.024-0.109-0.044-0.146-0.044-0.038 0-0.069-0.02-0.069-0.045s-0.028-0.045-0.064-0.045c-0.059 0-0.335-0.129-0.387-0.181-0.013-0.012-0.094-0.058-0.181-0.101-1.519-0.757-3.25-2.55-3.958-4.098-0.215-0.47-0.289-0.652-0.378-0.928-0.055-0.173-0.117-0.355-0.136-0.404-0.019-0.05-0.059-0.213-0.089-0.362s-0.081-0.372-0.113-0.496c-0.177-0.692-0.189-3.088-0.017-3.546 0.023-0.062 0.061-0.215 0.084-0.338 0.069-0.372 0.096-0.492 0.134-0.587 0.02-0.05 0.082-0.233 0.138-0.406 0.056-0.174 0.15-0.417 0.209-0.539 0.059-0.123 0.107-0.25 0.107-0.283 0-0.032 0.016-0.059 0.034-0.059 0.019 0 0.083-0.107 0.142-0.237 0.282-0.62 1.02-1.59 1.728-2.269 0.396-0.38 1.29-1.106 1.362-1.106 0.012 0 0.151-0.081 0.308-0.179 0.376-0.234 0.716-0.4 1.303-0.633 0.137-0.055 0.284-0.118 0.327-0.141 0.043-0.022 0.126-0.041 0.184-0.041 0.059 0 0.121-0.014 0.139-0.032 0.098-0.098 1.186-0.313 1.924-0.381 1.231-0.113 2.786 0.013 3.748 0.303 0.137 0.041 0.305 0.085 0.373 0.098 0.069 0.012 0.136 0.04 0.15 0.062 0.013 0.022 0.061 0.04 0.106 0.04s0.202 0.052 0.348 0.115c0.421 0.181 0.461 0.199 0.592 0.252 0.069 0.028 0.185 0.082 0.26 0.121 0.074 0.039 0.166 0.085 0.203 0.104 0.068 0.034 0.712 0.405 0.878 0.506 0.049 0.03 0.129 0.089 0.178 0.133 0.05 0.043 0.115 0.079 0.145 0.079 0.029 0 0.066 0.03 0.08 0.068 0.014 0.037 0.047 0.067 0.074 0.067 0.087 0 0.907 0.683 1.388 1.158 0.262 0.257 0.501 0.468 0.531 0.468 0.088 0 3.725-3.595 3.725-3.682 0-0.053-1.126-1.188-1.535-1.547-0.639-0.561-1.676-1.329-2.122-1.571-0.087-0.048-0.168-0.097-0.181-0.109-0.114-0.114-1.245-0.659-1.784-0.859-0.149-0.055-0.342-0.127-0.429-0.16-0.086-0.033-0.239-0.084-0.338-0.113-0.1-0.03-0.221-0.069-0.271-0.087-0.161-0.058-0.746-0.219-1.152-0.317-0.171-0.041-0.561-0.117-0.812-0.158-0.087-0.014-0.331-0.056-0.542-0.093-0.751-0.13-3.529-0.27-3.616-0.182m21.114 0.8c0.018 0.084 0.049 0.173 0.069 0.198s0.208 0.381 0.417 0.79c0.21 0.41 0.5 0.969 0.644 1.242s0.426 0.816 0.627 1.207c0.542 1.053 1.016 1.972 1.359 2.632 0.168 0.322 0.468 0.902 0.668 1.287s0.48 0.923 0.622 1.196 0.414 0.802 0.604 1.174c0.191 0.373 0.486 0.942 0.658 1.265 0.171 0.323 0.47 0.902 0.663 1.287 0.194 0.385 0.362 0.71 0.375 0.722 0.013 0.013 0.163 0.297 0.334 0.632 0.171 0.336 0.44 0.857 0.598 1.159l0.287 0.549v5.896c0 5.782 2e-3 5.896 0.087 5.942 0.104 0.055 5.188 0.065 5.275 0.01 0.043-0.028 0.058-1.32 0.067-5.972l0.012-5.935 0.114-0.181c0.063-0.099 0.236-0.425 0.384-0.723 0.149-0.298 0.28-0.552 0.293-0.564 0.012-0.012 0.223-0.419 0.469-0.903s0.558-1.094 0.695-1.355c0.136-0.261 0.44-0.85 0.675-1.309 0.235-0.46 0.553-1.08 0.705-1.378 0.153-0.298 0.293-0.548 0.312-0.557 0.018-8e-3 0.034-0.034 0.034-0.058 0-0.05 0.029-0.109 0.542-1.101 0.947-1.828 1.785-3.459 2.263-4.402 0.208-0.41 0.389-0.756 0.402-0.768 0.02-0.02 0.213-0.394 0.684-1.323 0.073-0.144 0.162-0.274 0.198-0.287 0.044-0.018 0.065-0.095 0.065-0.246v-0.221h-2.792-2.793l-0.363 0.711c-0.731 1.433-1.248 2.438-1.492 2.901-0.138 0.261-0.264 0.505-0.281 0.542-0.04 0.085-0.036 0.077-0.59 1.156-0.729 1.418-0.787 1.529-0.811 1.553-0.012 0.013-0.254 0.48-0.536 1.039-0.896 1.769-0.881 1.742-0.907 1.646-0.025-0.092-0.504-1.065-0.543-1.104-0.013-0.012-0.169-0.307-0.347-0.655-0.179-0.347-0.447-0.866-0.597-1.151-0.149-0.286-0.43-0.835-0.624-1.22-0.193-0.384-0.363-0.71-0.376-0.722-0.014-0.012-0.089-0.155-0.168-0.316-0.079-0.162-0.309-0.609-0.511-0.994-0.556-1.061-0.584-1.116-0.584-1.165 0-0.026-0.015-0.053-0.033-0.061-0.036-0.016-0.321-0.558-0.821-1.56l-0.297-0.596-2.777-3e-3c-1.528-1e-3 -2.825-0.015-2.884-0.031-0.101-0.027-0.105-0.02-0.074 0.125m-264.91 2.524v2.619h2.348 2.348v11.013 11.013l0.102 0.027c0.132 0.036 5.128 0.036 5.261 0l0.101-0.027v-11.013-11.013h2.461 2.461v-2.619-2.619h-7.541-7.541v2.619m22.217 11.013c0 12.39 7e-3 13.635 0.072 13.66 0.123 0.047 14.867 0.032 14.896-0.016 0.02-0.032 0.033-2.877 0.024-5.183 0-0.045-0.996-0.057-4.832-0.057h-4.831v-3.466-3.465l4.766 0.012c2.622 6e-3 4.796-5e-3 4.833-0.025 0.054-0.03 0.1-3.614 0.065-5.147-1e-3 -0.044-0.998-0.056-4.833-0.056h-4.832l0.011-2.326 0.012-2.327 4.821 1e-3c4.267 2e-3 4.82-6e-3 4.821-0.066v-2.575-2.551c-1e-3 -0.03-2.53-0.045-7.497-0.045h-7.496v13.632m56.582 0c0 12.39 6e-3 13.635 0.071 13.66 0.13 0.05 5.211 0.031 5.305-0.019 0.086-0.046 0.088-0.16 0.088-5.961v-5.914h4.425 4.425v5.933 5.932l0.142 0.028c0.208 0.042 5.155 0.033 5.221-9e-3 0.045-0.028 0.086-19.795 0.057-27.226-1e-3 -0.044-0.573-0.056-2.71-0.056h-2.71v5.079 5.08l-8.85 0.024-0.011-5.081-0.012-5.08-2.721-0.011-2.72-0.012v13.633m29.487 0v13.632l0.102 0.027c0.175 0.047 5.076 0.032 5.202-0.016l0.116-0.044-0.012-8.739c-6e-3 -4.806-7e-3 -8.738-1e-3 -8.738 5e-3 0 0.053 0.084 0.106 0.187 0.052 0.102 0.134 0.228 0.181 0.279s0.086 0.104 0.086 0.119c0 0.024 0.652 1.037 0.858 1.334 0.052 0.074 0.212 0.318 0.357 0.542 0.144 0.223 0.481 0.741 0.75 1.151 0.268 0.41 0.62 0.948 0.781 1.197 0.162 0.248 0.481 0.736 0.709 1.084 0.228 0.347 0.573 0.876 0.767 1.174s0.507 0.775 0.696 1.06 0.349 0.532 0.357 0.549c0.013 0.03 0.492 0.765 1.16 1.78 0.174 0.264 0.337 0.515 0.361 0.558 0.055 0.092 0.422 0.649 0.662 1.004 0.096 0.141 0.174 0.264 0.174 0.273 0 0.012 0.91 1.405 1.174 1.798 0.025 0.037 0.116 0.179 0.202 0.316 0.085 0.136 0.178 0.274 0.206 0.307 0.028 0.032 0.076 0.103 0.106 0.158 0.03 0.054 0.255 0.404 0.5 0.776 0.245 0.373 0.543 0.83 0.663 1.016 0.12 0.187 0.25 0.38 0.289 0.429 0.039 0.05 0.104 0.158 0.143 0.241 0.04 0.083 0.121 0.169 0.181 0.192 0.119 0.045 4.848 0.058 5.014 0.013l0.102-0.027-0.012-13.621-0.011-13.621-2.698-0.011-2.698-0.012v8.792 8.792l-0.253-0.404c-0.139-0.222-0.309-0.485-0.377-0.584-0.069-0.1-0.133-0.201-0.143-0.226-9e-3 -0.025-0.259-0.411-0.554-0.858s-0.594-0.904-0.665-1.016c-0.07-0.112-0.151-0.23-0.178-0.262-0.028-0.032-0.074-0.103-0.103-0.158s-0.157-0.253-0.283-0.44c-0.127-0.187-0.238-0.36-0.248-0.384-0.01-0.023-0.24-0.378-0.51-0.788s-0.569-0.867-0.665-1.016c-0.095-0.149-0.196-0.297-0.224-0.33-0.027-0.032-0.074-0.103-0.103-0.158-0.029-0.054-0.139-0.228-0.244-0.385-0.106-0.157-0.192-0.302-0.192-0.323s-0.016-0.045-0.035-0.053c-0.019-9e-3 -0.238-0.33-0.485-0.715-0.248-0.385-0.465-0.721-0.483-0.745-0.04-0.054-0.588-0.896-0.795-1.22-0.079-0.124-0.178-0.273-0.22-0.33-0.042-0.058-0.098-0.143-0.124-0.189-0.042-0.074-1.253-1.94-1.378-2.122-0.025-0.038-0.137-0.21-0.248-0.384s-0.225-0.343-0.253-0.375-0.075-0.103-0.104-0.158c-0.049-0.089-0.652-1.021-0.836-1.291-0.041-0.06-0.094-0.14-0.119-0.178-0.025-0.039-0.278-0.427-0.564-0.863-0.285-0.436-0.549-0.845-0.587-0.908-0.037-0.064-0.158-0.252-0.267-0.418l-0.2-0.302h-2.566-2.567v13.632m67.194 0c0 12.39 6e-3 13.635 0.071 13.66 0.093 0.036 12.609 0.035 12.742-1e-3l0.102-0.027-0.011-2.535-0.012-2.535-3.737-0.022-3.737-0.023-0.011-11.063-0.011-11.064-2.698-0.011-2.698-0.012v13.633m-21.63-9.024c0.678 0.063 1.448 0.226 1.726 0.365 0.043 0.021 0.118 0.039 0.167 0.039 0.048 0 0.101 0.02 0.116 0.045s0.064 0.045 0.109 0.045c0.044 0 0.176 0.051 0.293 0.113s0.242 0.113 0.278 0.113 0.065 0.02 0.065 0.045 0.03 0.045 0.066 0.045c0.26 0 1.64 0.983 2.31 1.646 0.436 0.43 1.327 1.557 1.327 1.677 0 0.019 0.031 0.068 0.068 0.11 0.096 0.106 0.626 1.201 0.7 1.444 0.034 0.112 0.075 0.224 0.092 0.249s0.057 0.157 0.088 0.293c0.03 0.137 0.076 0.299 0.1 0.362 0.047 0.119 0.104 0.389 0.175 0.835 0.115 0.714 0.115 2.584 1e-3 3.296-0.073 0.448-0.129 0.717-0.176 0.836-0.024 0.062-0.07 0.224-0.1 0.361-0.031 0.137-0.071 0.269-0.088 0.294-0.017 0.024-0.058 0.136-0.092 0.248-0.061 0.205-0.6 1.328-0.688 1.434-0.026 0.032-0.08 0.118-0.12 0.192-0.401 0.739-1.658 2.034-2.557 2.635-0.173 0.116-0.337 0.226-0.363 0.244-0.238 0.166-1.082 0.568-1.309 0.624-0.074 0.018-0.174 0.06-0.223 0.093-0.049 0.034-0.134 0.061-0.189 0.061s-0.112 0.018-0.125 0.04c-0.014 0.023-0.091 0.052-0.172 0.065-0.346 0.059-0.607 0.116-0.716 0.159-0.408 0.157-2.982 0.144-3.446-0.017-0.102-0.036-0.224-0.065-0.272-0.065-0.048-1e-3 -0.15-0.02-0.226-0.043-0.076-0.024-0.24-0.074-0.364-0.111-0.411-0.125-0.813-0.276-0.828-0.31-8e-3 -0.019-0.044-0.034-0.08-0.034-0.035 0-0.11-0.023-0.165-0.052-0.128-0.066-0.226-0.115-0.508-0.256-1.884-0.941-3.567-2.899-4.178-4.862-0.031-0.1-0.073-0.222-0.092-0.271-0.02-0.05-0.046-0.151-0.058-0.226-0.012-0.074-0.054-0.268-0.094-0.429-0.225-0.917-0.267-3.457-0.069-4.2 0.023-0.086 0.073-0.3 0.112-0.474 0.131-0.589 0.163-0.693 0.432-1.377 0.714-1.82 2.215-3.467 4.015-4.407 0.291-0.152 0.817-0.38 0.877-0.38 0.036 0 0.078-0.02 0.094-0.045 0.015-0.025 0.076-0.045 0.135-0.045s0.12-0.02 0.136-0.045c0.015-0.025 0.079-0.045 0.141-0.045s0.157-0.024 0.212-0.054c0.149-0.081 0.934-0.215 1.543-0.264 0.298-0.024 0.583-0.052 0.633-0.063 0.102-0.021 0.651 7e-3 1.287 0.067m55.452-0.044c0.862 0.069 1.885 0.26 2.178 0.409 0.044 0.021 0.119 0.039 0.167 0.039 0.049 0 0.101 0.02 0.116 0.045 0.016 0.025 0.057 0.045 0.092 0.045 0.034 0 0.213 0.072 0.396 0.158 0.183 0.087 0.356 0.158 0.385 0.158s0.053 0.019 0.053 0.041 0.046 0.052 0.102 0.066c0.116 0.029 1.149 0.707 1.389 0.911 1.301 1.109 2.306 2.495 2.78 3.837 0.044 0.124 0.094 0.246 0.111 0.271s0.043 0.096 0.057 0.158 0.047 0.194 0.075 0.293c0.216 0.789 0.313 1.627 0.313 2.71 1e-3 1.055-0.075 1.699-0.307 2.619-0.025 0.099-0.059 0.241-0.076 0.316-0.017 0.074-0.045 0.156-0.062 0.181-0.017 0.024-0.067 0.146-0.111 0.271-0.085 0.239-0.318 0.767-0.388 0.88-0.023 0.037-0.077 0.139-0.119 0.226-0.533 1.091-1.824 2.474-3.042 3.258-0.461 0.296-1.398 0.759-1.546 0.762-0.031 1e-3 -0.096 0.032-0.144 0.068s-0.134 0.066-0.189 0.066c-0.056 0-0.113 0.018-0.127 0.04-0.014 0.023-0.091 0.052-0.172 0.066-0.243 0.041-0.544 0.109-0.712 0.159-0.513 0.156-2.989 0.142-3.45-0.018-0.101-0.036-0.224-0.065-0.272-0.065-0.048-1e-3 -0.149-0.02-0.226-0.043-0.076-0.023-0.23-0.066-0.341-0.094-0.112-0.029-0.265-0.079-0.339-0.112-0.075-0.032-0.207-0.083-0.294-0.114-0.382-0.133-0.837-0.347-1.166-0.547-0.159-0.096-0.295-0.175-0.303-0.175-0.021 0-0.761-0.505-0.789-0.538-0.012-0.015-0.134-0.117-0.27-0.227-0.536-0.429-1.293-1.238-1.515-1.617-0.047-0.081-0.099-0.147-0.116-0.147-0.016 0-0.063-0.066-0.104-0.146-0.089-0.176-0.175-0.319-0.211-0.35-0.055-0.048-0.448-0.888-0.448-0.958 0-0.04-0.016-0.08-0.035-0.088-0.04-0.018-0.344-0.948-0.41-1.257-0.196-0.909-0.232-1.279-0.232-2.4 0-0.976 0.043-1.596 0.137-1.981 0.021-0.086 0.062-0.29 0.092-0.451 0.33-1.816 1.696-3.919 3.289-5.065 0.164-0.118 0.322-0.235 0.352-0.261s0.067-0.048 0.082-0.048c0.016 0 0.113-0.058 0.217-0.129 0.277-0.188 0.611-0.368 0.687-0.368 0.036 0 0.066-0.02 0.066-0.045s0.027-0.045 0.059-0.045c0.033 0 0.165-0.051 0.294-0.113 0.128-0.062 0.263-0.113 0.299-0.113s0.078-0.02 0.093-0.045 0.076-0.045 0.136-0.045c0.059 0 0.12-0.02 0.135-0.045s0.084-0.045 0.152-0.045 0.145-0.021 0.17-0.047c0.07-0.07 0.958-0.224 1.575-0.273 0.298-0.023 0.572-0.05 0.609-0.059 0.124-0.031 0.244-0.028 0.858 0.021m13.818 30.846c-0.112 0.023-0.265 0.062-0.342 0.085-0.076 0.024-0.181 0.043-0.234 0.043s-0.108 0.02-0.124 0.045c-0.015 0.025-0.057 0.045-0.093 0.045-0.092 0-0.736 0.312-0.904 0.438-0.077 0.057-0.164 0.104-0.192 0.104-0.029 0-0.053 0.021-0.053 0.045 0 0.025-0.02 0.046-0.044 0.046-0.208 0-1.214 1.11-1.495 1.65-0.065 0.125-0.139 0.267-0.165 0.316-0.537 1.028-0.61 2.597-0.18 3.836 0.063 0.182 0.267 0.627 0.3 0.655 0.015 0.013 0.057 0.084 0.094 0.158 0.368 0.744 1.966 2.145 2.447 2.145 0.025 0 0.11 0.029 0.188 0.063 0.078 0.035 0.238 0.09 0.356 0.123 0.133 0.037 0.192 0.072 0.158 0.094-0.031 0.019 0.483 0.034 1.141 0.032s1.169-0.014 1.134-0.028c-0.079-0.031 0.187-0.148 0.336-0.148 0.058 0 0.117-0.019 0.13-0.041 0.014-0.022 0.078-0.053 0.143-0.069 0.734-0.185 2.502-1.7 2.502-2.145 0-0.027 0.015-0.049 0.034-0.049 0.049-1e-3 0.328-0.618 0.418-0.925 0.029-0.099 0.071-0.242 0.092-0.316 0.246-0.841 0.147-2.346-0.203-3.116-0.034-0.075-0.093-0.207-0.132-0.294-0.459-1.03-2.137-2.574-2.798-2.574-0.031 0-0.077-0.017-0.1-0.037-0.024-0.021-0.165-0.064-0.314-0.094-0.149-0.031-0.356-0.075-0.46-0.098-0.239-0.052-1.369-0.044-1.64 0.011m24.385 1e-3c-0.687 0.144-1.362 0.404-1.698 0.655-0.077 0.057-0.161 0.104-0.188 0.104-0.026 0-0.055 0.016-0.063 0.034-9e-3 0.019-0.13 0.119-0.27 0.223-1.367 1.018-2.196 3.202-1.821 4.798 0.039 0.163 0.091 0.388 0.117 0.5 0.027 0.111 0.066 0.249 0.089 0.304 0.022 0.056 0.063 0.158 0.091 0.226 0.075 0.187 0.194 0.438 0.22 0.463 0.013 0.013 0.054 0.084 0.09 0.158 0.201 0.406 1.043 1.328 1.491 1.633 0.241 0.164 0.891 0.512 0.957 0.512 0.025 0 0.11 0.029 0.188 0.063 0.078 0.035 0.238 0.09 0.355 0.123 0.134 0.037 0.193 0.072 0.158 0.094-0.03 0.019 0.494 0.034 1.165 0.032 0.722-1e-3 1.182-0.018 1.128-0.041-0.087-0.037-0.086-0.039 9e-3 -0.042 0.054-2e-3 0.112-0.023 0.127-0.048s0.078-0.045 0.139-0.045 0.146-0.02 0.189-0.043c0.043-0.024 0.16-0.077 0.259-0.118 0.341-0.141 0.407-0.176 0.768-0.41 0.606-0.394 1.603-1.435 1.603-1.674 0-0.032 0.015-0.059 0.034-0.059 0.032 0 0.089-0.112 0.276-0.541 0.081-0.186 0.118-0.299 0.233-0.7 0.195-0.68 0.193-1.826-3e-3 -2.495-0.024-0.081-0.066-0.223-0.092-0.316-0.047-0.161-0.07-0.219-0.239-0.599-0.46-1.032-2.136-2.574-2.798-2.574-0.032 0-0.077-0.017-0.1-0.037-0.024-0.021-0.165-0.064-0.314-0.094-0.149-0.031-0.356-0.075-0.461-0.098-0.24-0.053-1.37-0.044-1.639 0.012m14.857-2e-3c-0.137 0.023-0.311 0.062-0.387 0.086-0.077 0.024-0.182 0.043-0.235 0.043s-0.108 0.02-0.124 0.045c-0.015 0.025-0.063 0.045-0.107 0.045-0.043 0-0.184 0.051-0.313 0.113s-0.247 0.113-0.264 0.113c-0.246 0-1.867 1.435-1.867 1.653 0 0.023-0.051 0.1-0.113 0.172s-0.113 0.15-0.113 0.173c0 0.024-0.037 0.097-0.083 0.163-0.599 0.857-0.711 2.713-0.245 4.043 0.392 1.12 1.499 2.426 2.259 2.666 0.056 0.018 0.101 0.051 0.101 0.074 0 0.024 0.027 0.042 0.06 0.042 0.032 0 0.139 0.038 0.237 0.084 0.191 0.09 0.498 0.194 0.847 0.287 0.187 0.049 0.203 0.062 0.113 0.088-0.058 0.016 0.484 0.031 1.204 0.033 0.721 2e-3 1.283-0.013 1.251-0.034-0.062-0.039-0.012-0.064 0.375-0.185 0.172-0.054 0.362-0.13 0.61-0.243 0.39-0.178 1.086-0.746 1.388-1.133 0.117-0.151 0.228-0.281 0.248-0.289 0.019-8e-3 0.035-0.035 0.035-0.059 0-0.025 0.057-0.13 0.128-0.234 0.242-0.355 0.446-0.836 0.616-1.454 0.072-0.264 0.139-1.267 0.096-1.439l-0.03-0.119-4.852 0.024-0.012 0.874c-9e-3 0.618 3e-3 0.894 0.04 0.939 0.044 0.052 0.276 0.061 1.333 0.051 0.705-7e-3 1.281-9e-3 1.281-4e-3 -1e-3 0.118-0.671 0.884-0.856 0.977-0.063 0.032-0.156 0.08-0.206 0.107-0.547 0.292-1.425 0.357-2.303 0.171-0.289-0.062-0.79-0.309-1.066-0.527-0.61-0.483-0.85-0.842-1.125-1.685-0.078-0.242-0.078-1.295 1e-3 -1.535 0.153-0.465 0.209-0.594 0.363-0.831 0.232-0.355 0.654-0.777 0.945-0.946 0.318-0.185 0.418-0.233 0.478-0.233 0.037 0 0.102-0.018 0.145-0.04 0.387-0.195 1.492-0.266 1.847-0.118 0.089 0.037 0.2 0.068 0.247 0.068s0.121 0.018 0.164 0.04 0.14 0.065 0.214 0.095c0.442 0.182 0.833 0.448 1.175 0.8 0.203 0.209 0.193 0.214 0.92-0.494 0.751-0.731 0.734-0.661 0.265-1.095-0.821-0.76-1.58-1.143-2.653-1.34-0.343-0.062-1.73-0.085-2.032-0.032m-248.59 0.158c-0.072 0.02-0.18 0.306-0.18 0.476 0 0.055-0.022 0.222-0.049 0.373-0.026 0.15-0.066 0.375-0.087 0.499-0.021 0.125-0.062 0.338-0.091 0.475-0.028 0.136-0.072 0.38-0.096 0.541-0.025 0.162-0.062 0.396-0.083 0.52-0.02 0.124-0.06 0.365-0.087 0.536-0.027 0.17-0.06 0.326-0.073 0.347-0.012 0.02-0.044 0.185-0.071 0.367-0.026 0.182-0.065 0.432-0.085 0.556-0.06 0.353-0.14 0.836-0.18 1.084-0.02 0.124-0.07 0.398-0.112 0.609-0.041 0.212-0.096 0.516-0.121 0.678-0.026 0.161-0.063 0.395-0.085 0.519-0.021 0.124-0.08 0.49-0.131 0.812-0.051 0.323-0.113 0.646-0.138 0.718-0.161 0.46-0.122 0.48 0.948 0.48 0.941 0 0.993-0.015 0.993-0.281 0-0.166 0.073-0.633 0.158-1.006 0.034-0.149 0.075-0.363 0.091-0.475 0.032-0.22 0.083-0.545 0.152-0.97 0.024-0.149 0.064-0.342 0.089-0.429 0.024-0.087 0.057-0.301 0.073-0.475 0.016-0.173 0.057-0.427 0.09-0.564 0.084-0.347 0.159-0.771 0.163-0.928 2e-3 -0.073 0.029-0.204 0.061-0.291l0.057-0.158 0.024 0.135c0.023 0.125 0.084 0.315 0.175 0.542 0.02 0.05 0.131 0.385 0.247 0.745s0.227 0.696 0.246 0.745c0.019 0.05 0.066 0.192 0.104 0.316 0.101 0.326 0.173 0.531 0.217 0.621 0.022 0.043 0.04 0.109 0.04 0.147s0.017 0.104 0.039 0.147c0.049 0.1 0.129 0.331 0.213 0.621 0.036 0.124 0.086 0.261 0.11 0.304s0.044 0.109 0.044 0.147 0.018 0.104 0.04 0.148c0.063 0.124 0.241 0.654 0.264 0.784 0.016 0.09 0.055 0.127 0.158 0.147 0.193 0.039 1.492 0.033 1.552-7e-3 0.073-0.048 0.182-0.278 0.221-0.462 0.018-0.087 0.058-0.219 0.09-0.294 0.031-0.074 0.109-0.298 0.174-0.496 0.165-0.511 0.307-0.933 0.348-1.039 0.019-0.05 0.11-0.324 0.201-0.61 0.092-0.285 0.185-0.554 0.208-0.597 0.022-0.043 0.04-0.116 0.04-0.161s0.018-0.101 0.04-0.124c0.021-0.024 0.135-0.348 0.253-0.721 0.117-0.372 0.23-0.718 0.251-0.767 0.021-0.05 0.054-0.141 0.073-0.204 0.031-0.1 0.038-0.09 0.067 0.091 0.017 0.112 0.055 0.345 0.084 0.519s0.07 0.428 0.09 0.565c0.02 0.136 0.069 0.421 0.11 0.632 0.04 0.211 0.092 0.505 0.116 0.654 0.1 0.63 0.139 0.872 0.179 1.107 0.024 0.136 0.064 0.397 0.089 0.579 0.026 0.182 0.058 0.348 0.072 0.37 0.013 0.023 0.045 0.179 0.07 0.347 0.106 0.715-3e-3 0.656 1.171 0.636l0.79-0.013 0.015-0.181c0.014-0.16-0.038-0.488-0.175-1.095-0.024-0.106-0.043-0.247-0.043-0.314 0-0.135-0.064-0.52-0.16-0.961-0.035-0.162-0.085-0.485-0.112-0.719-0.026-0.234-0.06-0.444-0.074-0.467-0.015-0.024-0.045-0.168-0.068-0.32-0.023-0.153-0.059-0.39-0.081-0.526-0.022-0.137-0.061-0.397-0.087-0.579-0.027-0.182-0.062-0.352-0.078-0.378s-0.046-0.182-0.066-0.347c-0.021-0.165-0.06-0.432-0.087-0.593-0.048-0.286-0.102-0.623-0.181-1.129-0.021-0.137-0.073-0.421-0.115-0.632s-0.092-0.496-0.113-0.632c-0.118-0.802 5e-3 -0.723-1.122-0.723-0.785 0-0.953 0.037-0.953 0.211 0 0.07-0.157 0.588-0.231 0.76-0.021 0.05-0.098 0.273-0.17 0.497-0.072 0.223-0.151 0.457-0.175 0.519-0.025 0.062-0.069 0.194-0.098 0.294-0.03 0.099-0.07 0.221-0.09 0.271-0.02 0.049-0.061 0.171-0.091 0.27-0.03 0.1-0.101 0.313-0.158 0.475-0.056 0.161-0.127 0.374-0.157 0.474-0.03 0.099-0.072 0.221-0.094 0.271-0.037 0.087-0.152 0.435-0.299 0.903-0.039 0.124-0.089 0.261-0.112 0.304-0.022 0.043-0.041 0.115-0.041 0.16s-0.017 0.102-0.039 0.125c-0.045 0.049-0.232 0.636-0.232 0.728 0 0.033-0.02 0.06-0.045 0.06s-0.045-0.04-0.045-0.089c0-0.079-0.263-0.922-0.359-1.153-0.021-0.049-0.073-0.212-0.116-0.361s-0.096-0.29-0.118-0.314c-0.021-0.023-0.039-0.08-0.039-0.125s-0.019-0.117-0.041-0.16c-0.023-0.043-0.157-0.444-0.3-0.891-0.307-0.968-0.387-1.204-0.427-1.265-0.016-0.024-0.057-0.162-0.09-0.306s-0.078-0.273-0.098-0.285c-0.021-0.013-0.038-0.063-0.038-0.112 0-0.048-0.018-0.123-0.04-0.166-0.023-0.044-0.078-0.201-0.122-0.35-0.045-0.149-0.098-0.29-0.118-0.314-0.02-0.023-0.036-0.089-0.036-0.146 0-0.256-0.104-0.285-1.004-0.28-0.454 3e-3 -0.855 0.014-0.893 0.024m14.46 0.025c-0.094 0.094-0.077 9.501 0.017 9.537 0.093 0.036 1.751 0.036 1.844 0 0.11-0.042 0.11-9.521 0-9.563-0.141-0.055-1.804-0.031-1.861 0.026m6.803-0.024c-0.112 0.03-0.128 0.15-0.128 0.986 0 1.084-0.1 0.971 0.862 0.971h0.808v3.792 3.793l0.102 0.025c0.055 0.013 0.508 0.019 1.004 0.012l0.903-0.013 0.012-3.804 0.012-3.805h0.835 0.835v-0.966c0-0.963 0-0.965-0.102-0.992-0.114-0.031-5.027-0.029-5.143 1e-3m10.314 0.02c-0.096 0.099-0.081 9.504 0.015 9.541 0.105 0.041 1.793 0.032 1.858-9e-3 0.043-0.028 0.059-0.497 0.068-1.998l0.012-1.962 0.139 0.271c0.076 0.149 0.221 0.423 0.32 0.61 0.1 0.186 0.281 0.531 0.402 0.767s0.231 0.44 0.244 0.452 0.081 0.134 0.151 0.271c0.536 1.044 0.769 1.477 0.831 1.546 0.112 0.124 2.09 0.122 2.09-2e-3 0-0.076-0.266-0.625-0.562-1.16-0.138-0.251-0.501-0.935-0.861-1.626-0.266-0.509-0.506-0.956-0.648-1.209-0.119-0.21-0.119-0.213-4e-3 -0.213 0.149 0 0.793-0.441 1.015-0.694 0.759-0.865 0.836-2.438 0.168-3.424-0.36-0.532-0.888-0.894-1.524-1.043-0.547-0.128-3.611-0.225-3.714-0.118m14.179-0.018c-0.059 0.011-0.102 0.053-0.102 0.098 0 0.044-0.05 0.184-0.113 0.313-0.062 0.129-0.112 0.265-0.112 0.303 0 0.037-0.018 0.103-0.04 0.147-0.093 0.181-0.386 0.925-0.486 1.23-0.037 0.111-0.094 0.264-0.127 0.338-0.117 0.262-0.209 0.492-0.288 0.723-0.088 0.255-0.394 1.043-0.517 1.332-0.037 0.087-0.082 0.209-0.1 0.271s-0.059 0.174-0.09 0.248c-0.032 0.075-0.083 0.207-0.114 0.294-0.03 0.087-0.094 0.245-0.142 0.352-0.047 0.107-0.117 0.29-0.155 0.406-0.037 0.117-0.086 0.253-0.108 0.303-0.097 0.218-0.362 0.903-0.362 0.934 0 0.019-0.051 0.145-0.113 0.281s-0.113 0.269-0.113 0.295c0 0.027-0.018 0.084-0.04 0.127-0.08 0.158-0.321 0.78-0.321 0.829 0 0.021-0.053 0.148-0.117 0.284-0.064 0.135-0.11 0.293-0.101 0.351l0.015 0.105 0.938 0.012c1.058 0.014 1.07 0.011 1.157-0.29 0.035-0.12 0.109-0.32 0.164-0.445 0.056-0.124 0.126-0.296 0.156-0.383s0.072-0.199 0.092-0.249c0.021-0.049 0.068-0.161 0.104-0.248s0.077-0.194 0.092-0.237c0.024-0.074 0.154-0.079 1.875-0.079h1.849l0.032 0.145c0.018 0.08 0.048 0.177 0.067 0.215s0.09 0.211 0.157 0.385 0.138 0.357 0.158 0.406c0.02 0.05 0.094 0.239 0.165 0.42 0.156 0.4 0.079 0.377 1.212 0.361l0.903-0.013-6e-3 -0.113c-6e-3 -0.118-0.252-0.837-0.303-0.889-0.016-0.016-0.029-0.056-0.029-0.088 0-0.033-0.049-0.166-0.108-0.297s-0.129-0.3-0.155-0.374c-0.051-0.146-0.351-0.935-0.412-1.084-0.021-0.05-0.093-0.232-0.16-0.406s-0.139-0.357-0.159-0.407c-0.02-0.049-0.06-0.161-0.09-0.248s-0.081-0.219-0.113-0.294c-0.032-0.074-0.103-0.257-0.157-0.406-0.055-0.149-0.116-0.312-0.135-0.361-0.02-0.05-0.091-0.233-0.159-0.407-0.067-0.174-0.139-0.356-0.16-0.406s-0.064-0.172-0.095-0.271c-0.032-0.099-0.074-0.2-0.094-0.224-0.019-0.023-0.035-0.069-0.035-0.101 0-0.033-0.051-0.165-0.113-0.293-0.062-0.129-0.113-0.261-0.113-0.294s-0.019-0.095-0.041-0.139c-0.073-0.138-0.275-0.647-0.275-0.691 0-0.024-0.039-0.129-0.085-0.234-0.047-0.105-0.11-0.263-0.141-0.35-0.03-0.087-0.081-0.219-0.113-0.293-0.032-0.075-0.08-0.186-0.106-0.249-0.027-0.062-0.083-0.221-0.124-0.353-0.056-0.175-0.106-0.252-0.186-0.282-0.107-0.041-1.606-0.049-1.808-0.01m18.04-1e-3c-0.075 0.02-0.079 0.276-0.068 4.793l0.012 4.772h0.971 0.97l0.012-4.741c0.011-4.418 7e-3 -4.746-0.065-4.798-0.075-0.055-1.636-0.077-1.832-0.026m7.609-1e-3c-0.096 0.039-0.081 9.524 0.015 9.561 0.107 0.041 1.794 0.032 1.86-0.01 0.045-0.029 0.054-0.646 0.045-2.98-7e-3 -1.619-6e-3 -2.943 1e-3 -2.943s0.027 0.035 0.045 0.079c0.019 0.043 0.174 0.292 0.345 0.553s0.503 0.769 0.737 1.129 0.533 0.817 0.664 1.016c0.759 1.154 1.109 1.696 1.109 1.718 0 0.013 0.021 0.049 0.047 0.079s0.22 0.319 0.431 0.641c0.21 0.323 0.412 0.624 0.449 0.667 0.06 0.073 0.151 0.079 0.958 0.068l0.892-0.012 0.011-4.77 0.012-4.769-0.142-0.029c-0.18-0.036-1.609-0.035-1.744 1e-3l-0.102 0.027-2e-3 2.964c-2e-3 1.63-0.02 2.923-0.04 2.873s-0.137-0.243-0.26-0.429-0.341-0.521-0.486-0.745c-0.144-0.223-0.355-0.548-0.47-0.72-0.115-0.173-0.24-0.366-0.278-0.429-0.038-0.064-0.209-0.329-0.38-0.589-0.479-0.731-1.152-1.764-1.279-1.965-0.063-0.099-0.152-0.231-0.198-0.293s-0.116-0.174-0.157-0.249c-0.041-0.074-0.134-0.211-0.208-0.305l-0.133-0.169-0.843 4e-3c-0.463 2e-3 -0.868 0.014-0.899 0.026m12.544 0.057c-0.05 0.094-0.067 1.705-0.019 1.829 0.023 0.061 0.14 0.071 0.835 0.071h0.808v3.792 3.793l0.102 0.025c0.056 0.013 0.498 0.019 0.982 0.012l0.88-0.013 0.012-3.804 0.012-3.805h0.857 0.858v-0.966c0-0.963 0-0.965-0.102-0.992-0.311-0.084-5.178-0.029-5.225 0.058m10.328-0.056c-0.075 0.02-0.079 0.276-0.068 4.793l0.012 4.772 2.569 0.012c1.859 8e-3 2.585-3e-3 2.63-0.04 0.064-0.053 0.094-1.708 0.034-1.865-0.024-0.063-0.213-0.071-1.659-0.071h-1.633v-1.131-1.13l1.536 3e-3c0.844 2e-3 1.591 2e-3 1.659 1e-3l0.124-1e-3v-0.92c0-0.728-0.013-0.931-0.062-0.972-0.044-0.037-0.519-0.051-1.653-0.049l-1.59 4e-3 -7e-3 -0.725-7e-3 -0.724 3.297-0.024 0.012-0.919c9e-3 -0.641-3e-3 -0.939-0.039-0.983-0.05-0.06-4.93-0.089-5.155-0.031m10.702 0c-0.116 0.031-0.123 9.516-7e-3 9.56 0.215 0.083 1.867 0.028 1.915-0.063 0.034-0.062 0.045-0.695 0.036-1.985-7e-3 -1.042 0-1.88 0.016-1.862 0.016 0.017 0.156 0.275 0.311 0.573 0.567 1.093 0.913 1.748 1.416 2.684 0.139 0.259 0.253 0.498 0.253 0.532 0 0.118 0.243 0.149 1.2 0.149h0.968l-1e-3 -0.102c0-0.056-0.029-0.152-0.064-0.215-0.036-0.062-0.127-0.234-0.204-0.383s-0.259-0.495-0.405-0.768-0.346-0.649-0.443-0.835c-0.098-0.187-0.276-0.522-0.396-0.746-0.292-0.542-0.384-0.731-0.384-0.788 0-0.026-0.016-0.047-0.037-0.047-0.03 0-0.111-0.134-0.225-0.372-9e-3 -0.019 0.025-0.034 0.076-0.034 0.569 0 1.446-1.038 1.605-1.9 0.295-1.6-0.521-2.943-1.983-3.265-0.589-0.13-3.283-0.228-3.647-0.133m11.286-1e-3c-0.074 0.074-0.033 9.533 0.041 9.561 0.093 0.036 1.681 0.035 1.814-1e-3l0.102-0.027 2e-3 -2.919c2e-3 -2.277 0.015-2.899 0.057-2.832 0.102 0.165 0.588 0.909 0.806 1.233 0.12 0.18 0.218 0.336 0.218 0.348s0.092 0.152 0.204 0.312c0.111 0.16 0.203 0.312 0.203 0.337 0 0.026 0.017 0.054 0.037 0.062 0.021 8e-3 0.238 0.33 0.484 0.715s0.461 0.71 0.479 0.723 0.06 0.074 0.093 0.136c0.032 0.061 0.179 0.295 0.326 0.518 0.147 0.224 0.385 0.589 0.527 0.813 0.425 0.665 0.309 0.61 1.277 0.61 0.458 0 0.866-0.013 0.905-0.028 0.064-0.025 0.071-0.488 0.071-4.781v-4.754l-0.101-0.027c-0.132-0.036-1.652-0.036-1.784 0l-0.101 0.027-0.012 2.959c-0.01 2.659-0.018 2.946-0.079 2.829-0.037-0.073-0.149-0.255-0.248-0.405s-0.232-0.359-0.294-0.464-0.158-0.246-0.214-0.314c-0.056-0.067-0.102-0.137-0.102-0.154 0-0.018-0.091-0.163-0.203-0.323s-0.23-0.339-0.261-0.397c-0.032-0.059-0.278-0.442-0.547-0.852-0.269-0.409-0.568-0.867-0.664-1.016s-0.216-0.321-0.265-0.384c-0.05-0.062-0.091-0.126-0.091-0.142-1e-3 -0.017-0.113-0.196-0.249-0.399-0.137-0.203-0.249-0.378-0.249-0.389 0-0.078-0.383-0.555-0.463-0.577-0.139-0.037-1.682-0.035-1.719 2e-3m16.374 0.016c-0.055 0.022-0.114 0.097-0.13 0.167-0.017 0.069-0.044 0.146-0.06 0.171s-0.055 0.126-0.087 0.226c-0.059 0.186-0.083 0.247-0.201 0.519-0.038 0.087-0.096 0.244-0.129 0.35s-0.075 0.192-0.094 0.192-0.034 0.047-0.034 0.104-0.018 0.123-0.04 0.147c-0.021 0.023-0.064 0.124-0.095 0.223-0.03 0.099-0.104 0.286-0.163 0.415-0.06 0.129-0.108 0.266-0.108 0.305 0 0.04-0.018 0.107-0.04 0.15-0.083 0.161-0.184 0.406-0.322 0.778-0.205 0.551-0.373 0.986-0.507 1.31-0.037 0.087-0.091 0.229-0.123 0.316-0.031 0.087-0.072 0.199-0.092 0.248-0.02 0.05-0.061 0.162-0.09 0.249-0.06 0.174-0.09 0.25-0.202 0.519-0.153 0.367-0.171 0.408-0.21 0.485-0.022 0.043-0.04 0.109-0.04 0.147s-0.019 0.104-0.043 0.148c-0.024 0.043-0.117 0.271-0.207 0.507-0.091 0.236-0.18 0.47-0.2 0.519-0.053 0.133-0.16 0.415-0.275 0.723-0.056 0.149-0.119 0.29-0.14 0.314-0.021 0.023-0.038 0.11-0.038 0.192v0.149l0.914-1e-3c1.11-1e-3 1.088 4e-3 1.185-0.263 0.077-0.215 0.123-0.332 0.226-0.572 0.032-0.074 0.083-0.206 0.114-0.293 0.03-0.087 0.083-0.222 0.117-0.299 0.033-0.077 0.087-0.219 0.119-0.316l0.057-0.176 1.857-0.011 1.858-0.012 0.074 0.237c0.042 0.131 0.093 0.279 0.115 0.328 0.061 0.136 0.255 0.653 0.322 0.858 0.033 0.1 0.076 0.2 0.096 0.224 0.019 0.023 0.036 0.08 0.036 0.125 0 0.141 0.199 0.171 1.154 0.171h0.923v-0.158c0-0.087-0.021-0.159-0.045-0.159-0.025 0-0.046-0.03-0.046-0.068 0-0.037-0.018-0.104-0.041-0.147-0.043-0.08-0.155-0.366-0.411-1.049-0.148-0.393-0.342-0.9-0.408-1.061-0.02-0.05-0.09-0.233-0.155-0.407-0.128-0.341-0.192-0.497-0.254-0.62-0.022-0.043-0.04-0.109-0.04-0.147s-0.019-0.104-0.043-0.148c-0.053-0.096-0.154-0.342-0.227-0.552-0.064-0.183-0.106-0.294-0.171-0.452-0.026-0.062-0.072-0.184-0.103-0.271-0.075-0.208-0.176-0.455-0.228-0.552-0.022-0.043-0.041-0.104-0.041-0.136 0-0.031-0.029-0.112-0.064-0.179-0.036-0.068-0.108-0.251-0.162-0.407s-0.137-0.37-0.184-0.475c-0.048-0.105-0.087-0.213-0.087-0.24s-0.05-0.16-0.113-0.295c-0.062-0.136-0.112-0.262-0.112-0.281 0-0.03-0.256-0.692-0.362-0.934-0.021-0.05-0.065-0.172-0.096-0.271-0.032-0.1-0.071-0.201-0.088-0.226-0.016-0.025-0.043-0.102-0.059-0.171-0.018-0.077-0.075-0.143-0.145-0.169-0.143-0.055-1.676-0.053-1.812 2e-3m10.584-0.016c-0.074 0.074-0.033 9.533 0.042 9.561 0.108 0.042 4.413 0.032 4.479-0.01 0.044-0.028 0.054-0.256 0.045-0.982l-0.012-0.945-1.31-0.012-1.309-0.012 0.011-3.778c0.01-3.002 1e-3 -3.786-0.045-3.814-0.068-0.044-1.858-0.051-1.901-8e-3m16.212 0.027c-0.069 0.05-0.076 0.151-0.065 0.982l0.012 0.925 0.824 0.013 0.824 0.012 0.011 3.804 0.012 3.803 0.903 0.013c0.497 7e-3 0.949 1e-3 1.005-0.012l0.101-0.025v-3.793-3.792h0.831c0.716 0 0.834-0.01 0.858-0.071 0.08-0.208 0.028-1.822-0.06-1.869-0.137-0.073-5.156-0.064-5.256 0.01m10.277-0.01-0.102 0.041v4.678c0 3.138 0.016 4.707 0.047 4.765 0.05 0.093 5.083 0.141 5.226 0.05 0.044-0.028 0.055-0.256 0.045-0.982l-0.012-0.945-1.659-0.012-1.66-0.011v-1.13-1.13l1.547 3e-3c0.85 2e-3 1.603 2e-3 1.671 1e-3l0.125-1e-3 -0.012-0.96-0.012-0.959h-1.659-1.66v-0.734-0.733l3.319-0.024 0.012-0.945c0.01-0.725-1e-3 -0.953-0.045-0.981-0.079-0.05-5.045-0.042-5.171 9e-3m10.612-0.017c-0.045 0.018-0.057 1.017-0.057 4.782v4.76l0.102 0.025c0.056 0.013 0.508 0.019 1.005 0.012l0.903-0.013v-1.993-1.993l0.166 0.254c0.092 0.14 0.186 0.277 0.209 0.304 0.024 0.026 0.101 0.136 0.172 0.243 0.351 0.525 0.395 0.59 0.744 1.085 0.423 0.601 1.133 1.631 1.291 1.874 0.168 0.257 0.115 0.247 1.29 0.248l1.072 1e-3v-0.153c0-0.084-0.03-0.178-0.067-0.208-0.037-0.031-0.146-0.171-0.241-0.311-0.096-0.14-0.386-0.559-0.644-0.932-0.259-0.373-0.572-0.83-0.696-1.016s-0.238-0.348-0.253-0.361c-0.015-0.012-0.062-0.083-0.104-0.158-0.041-0.074-0.136-0.217-0.21-0.316s-0.204-0.282-0.288-0.406c-0.083-0.125-0.259-0.379-0.389-0.565-0.683-0.972-0.649-0.877-0.415-1.165 0.093-0.115 0.193-0.241 0.221-0.279 0.029-0.037 0.233-0.295 0.452-0.573 0.219-0.277 0.511-0.65 0.647-0.828 0.137-0.179 0.32-0.412 0.407-0.518 0.087-0.105 0.361-0.453 0.609-0.771 0.249-0.319 0.499-0.629 0.557-0.689 0.058-0.061 0.109-0.163 0.113-0.229l8e-3 -0.118-1.039-0.013c-1.304-0.016-1.132-0.087-1.788 0.74-0.308 0.388-0.621 0.781-0.695 0.874-0.075 0.093-0.258 0.326-0.407 0.519-0.149 0.192-0.308 0.393-0.355 0.447-0.046 0.053-0.143 0.183-0.216 0.289-0.073 0.105-0.137 0.192-0.142 0.192s-4e-3 -0.645 4e-3 -1.434c7e-3 -0.788 1e-3 -1.479-0.013-1.535-0.024-0.098-1.733-0.161-1.953-0.072m11.919 0.024c-0.086 0.086-0.078 9.444 8e-3 9.515 0.043 0.036 0.347 0.048 1.005 0.039l0.942-0.012v-2.943c0-1.618 3e-3 -2.939 7e-3 -2.935 0.039 0.046 0.512 0.771 0.512 0.786 0 0.01 0.126 0.205 0.279 0.433 0.152 0.228 0.322 0.485 0.376 0.572 0.089 0.142 0.185 0.29 0.316 0.487 0.132 0.197 1.05 1.604 1.118 1.712 0.043 0.07 0.135 0.213 0.203 0.319 0.068 0.105 0.244 0.379 0.39 0.609 0.147 0.23 0.284 0.425 0.305 0.433s0.039 0.037 0.039 0.064c0 0.026 0.051 0.115 0.113 0.196s0.113 0.167 0.113 0.191c0 0.092 1.653 0.154 1.87 0.071 0.065-0.025 0.071-0.488 0.071-4.781v-4.753l-0.141-0.029c-0.181-0.036-1.68-0.037-1.774 0-0.064 0.024-0.071 0.33-0.071 2.991v2.964l-0.226-0.351c-0.124-0.194-0.32-0.498-0.437-0.678-0.116-0.179-0.362-0.559-0.546-0.845-0.367-0.568-0.65-1.001-1.103-1.693-0.603-0.92-1.155-1.77-1.339-2.061-0.113-0.178-0.231-0.311-0.29-0.327-0.199-0.053-1.683-0.031-1.74 0.026m28.315-0.017c-0.045 0.029-0.054 1.019-0.045 4.798l0.012 4.761 2.167 0.013c1.192 6e-3 2.214 1e-3 2.27-0.013l0.103-0.025-0.013-0.958-0.012-0.959-2.551-0.024v-3.761c0-2.865-0.013-3.773-0.054-3.815-0.063-0.062-1.781-0.077-1.877-0.017m39.061-5e-3 -0.102 0.02 0.012 4.772 0.011 4.772 0.881 0.013c0.484 7e-3 0.926 1e-3 0.982-0.012l0.101-0.025v-4.715c0-4.226-7e-3 -4.722-0.07-4.786-0.069-0.068-1.502-0.099-1.815-0.039m-48.71 1.801c0.67 0.214 1.163 0.526 1.51 0.953 0.087 0.107 0.179 0.22 0.205 0.251 0.156 0.184 0.383 0.77 0.447 1.151 0.222 1.318-0.179 2.406-1.149 3.119-0.275 0.202-0.343 0.241-0.632 0.359-0.588 0.24-1.578 0.24-2.168 0-0.196-0.08-0.471-0.226-0.545-0.289-0.039-0.034-0.086-0.061-0.105-0.061-0.018 0-0.059-0.026-0.09-0.057-0.032-0.031-0.113-0.097-0.181-0.147-0.157-0.115-0.527-0.583-0.623-0.79-0.284-0.608-0.282-0.6-0.283-1.49-2e-3 -1.231 0.475-2.211 1.275-2.623 0.068-0.035 0.134-0.075 0.146-0.089s0.134-0.068 0.271-0.12c0.137-0.051 0.33-0.124 0.429-0.162 0.257-0.097 1.196-0.101 1.493-5e-3m24.382 2e-3c0.84 0.276 1.162 0.502 1.736 1.219 0.248 0.31 0.499 1.19 0.499 1.75 0 1.199-0.685 2.353-1.648 2.778-0.075 0.033-0.171 0.078-0.214 0.1s-0.115 0.04-0.16 0.04-0.106 0.024-0.136 0.054c-0.136 0.136-1.516 0.058-1.826-0.104-0.043-0.022-0.098-0.04-0.122-0.04-0.065 0-0.587-0.314-0.745-0.448-0.763-0.647-0.993-1.19-0.995-2.353-2e-3 -0.894-0.012-0.838 0.27-1.467 0.193-0.431 0.892-1.196 1.092-1.196 0.033 0 0.059-0.021 0.059-0.045 0-0.025 0.02-0.046 0.045-0.046 0.026 0 0.132-0.037 0.237-0.083 0.44-0.19 0.599-0.222 1.14-0.228 0.394-4e-3 0.604 0.015 0.768 0.069m-200.48 0.22c0.395 0.089 0.635 0.605 0.496 1.068-0.119 0.397-0.449 0.535-1.275 0.535h-0.524v-0.838-0.838l0.576 0.019c0.317 0.011 0.644 0.035 0.727 0.054m73.334-8e-3c0.494 0.148 0.703 0.582 0.541 1.124-0.105 0.352-0.458 0.487-1.268 0.487h-0.507v-0.836-0.835l0.519 1e-3c0.292 0 0.605 0.026 0.715 0.059m-61.406 0.986c0 0.026 0.028 0.111 0.063 0.189 0.034 0.078 0.087 0.213 0.118 0.3 0.03 0.087 0.101 0.26 0.156 0.384 0.056 0.124 0.116 0.287 0.134 0.361 0.032 0.133 0.128 0.374 0.21 0.53 0.023 0.044 0.042 0.099 0.042 0.123 0 0.025 0.048 0.152 0.106 0.283 0.109 0.243 0.21 0.484 0.21 0.5 0 5e-3 -0.498 9e-3 -1.107 9e-3 -0.608 0-1.1-0.01-1.093-0.022 0.023-0.041 0.133-0.292 0.168-0.384 0.019-0.05 0.109-0.273 0.199-0.497 0.09-0.223 0.163-0.431 0.163-0.463-1e-3 -0.031 0.019-0.056 0.044-0.056s0.045-0.039 0.045-0.086c0-0.07 0.149-0.47 0.363-0.975 0.021-0.05 0.051-0.136 0.067-0.193 0.027-0.098 0.112-0.1 0.112-3e-3m86.882 0.03c0 0.043 0.028 0.118 0.061 0.167 0.034 0.049 0.076 0.15 0.094 0.225 0.032 0.132 0.128 0.373 0.21 0.53 0.023 0.043 0.041 0.1 0.041 0.127 0 0.026 0.049 0.154 0.109 0.282 0.059 0.129 0.152 0.367 0.207 0.528 0.054 0.162 0.147 0.401 0.207 0.532 0.061 0.131 0.11 0.243 0.11 0.248 0 6e-3 -0.498 0.01-1.107 0.01-1.006 0-1.184-0.014-1.068-0.086 0.022-0.013 0.074-0.121 0.117-0.239 0.043-0.119 0.095-0.257 0.115-0.307 0.021-0.049 0.083-0.212 0.137-0.361 0.103-0.281 0.206-0.53 0.275-0.665 0.022-0.044 0.04-0.099 0.04-0.123 0-0.025 0.051-0.156 0.113-0.291 0.062-0.136 0.113-0.263 0.113-0.283 0-0.019 0.033-0.121 0.074-0.227 0.071-0.188 0.152-0.223 0.152-0.067"/>
</svg>
